<svg xmlns="http://www.w3.org/2000/svg" width="1200" height="350" viewBox="0 0 1200 350"><title>NexyFab exact OCCT HLR — scale</title><rect width="1200" height="350" fill="white"/><g transform="translate(0 0)"><text x="12" y="24" font-family="sans-serif" font-size="14">front</text><svg x="12" y="36" width="376" height="300" viewBox="-64.500001 -39.500001 129.000002 79.000002"><path d="M -62.5 37.5 L -62.5 -37.5 L 62.5 -37.5" fill="none" stroke="#64748b" stroke-width="0.3" stroke-dasharray="2 1"/><path d="M 62.5 37.5 L 62.5 -37.5" fill="none" stroke="#64748b" stroke-width="0.3" stroke-dasharray="2 1"/><path d="M -62.5 37.5 L 62.5 37.5" fill="none" stroke="#64748b" stroke-width="0.3" stroke-dasharray="2 1"/><path d="M 62.5 37.5 L 62.5 -37.5 L -62.5 -37.5" fill="none" stroke="#111827" stroke-width="0.55"/><path d="M -62.5 37.5 L -62.5 -37.5" fill="none" stroke="#111827" stroke-width="0.55"/><path d="M 62.5 37.5 L -62.5 37.5" fill="none" stroke="#111827" stroke-width="0.55"/></svg></g><g transform="translate(400 0)"><text x="12" y="24" font-family="sans-serif" font-size="14">top</text><svg x="12" y="36" width="376" height="300" viewBox="-64.500001 -5.968751 129.000002 11.937502"><path d="M -62.5 3.96875 L 62.5 3.96875 L 62.5 -3.96875 L -62.5 -3.96875 L -62.5 3.96875 Z" fill="none" stroke="#64748b" stroke-width="0.3" stroke-dasharray="2 1"/><path d="M -62.5 3.96875 L 62.5 3.96875 L 62.5 -3.96875 L -62.5 -3.96875 L -62.5 3.96875 Z" fill="none" stroke="#111827" stroke-width="0.55"/></svg></g><g transform="translate(800 0)"><text x="12" y="24" font-family="sans-serif" font-size="14">right</text><svg x="12" y="36" width="376" height="300" viewBox="-5.968751 -39.500001 11.937502 79.000002"><path d="M -3.96875 37.5 L -3.96875 -37.5 L 3.96875 -37.5" fill="none" stroke="#64748b" stroke-width="0.3" stroke-dasharray="2 1"/><path d="M 3.96875 37.5 L 3.96875 -37.5" fill="none" stroke="#64748b" stroke-width="0.3" stroke-dasharray="2 1"/><path d="M -3.96875 37.5 L 3.96875 37.5" fill="none" stroke="#64748b" stroke-width="0.3" stroke-dasharray="2 1"/><path d="M -3.96875 37.5 L -3.96875 -37.5" fill="none" stroke="#111827" stroke-width="0.55"/><path d="M 3.96875 37.5 L 3.96875 -37.5 L -3.96875 -37.5" fill="none" stroke="#111827" stroke-width="0.55"/><path d="M 3.96875 37.5 L -3.96875 37.5" fill="none" stroke="#111827" stroke-width="0.55"/></svg></g></svg>
