ISO-10303-21;
HEADER;
FILE_DESCRIPTION(('Independent ISO 10303-21 roundtrip'),'2;1');
FILE_NAME('independent-returned.step','',('independent-parser'),('local-evidence'),'Pure TS Part 21 Parser/Writer','Pure TS Part 21 Parser/Writer','');
FILE_SCHEMA(('AP242_MANAGED_MODEL_BASED_3D_ENGINEERING_MIM_LF'));
ENDSEC;
DATA;
#1=APPLICATION_CONTEXT('mechanical design');
#2=APPLICATION_PROTOCOL_DEFINITION('international standard','ap242_managed_model_based_3d_engineering',2014,#1);
#3=PRODUCT_CONTEXT('',#1,'mechanical');
#4=PRODUCT_DEFINITION_CONTEXT('part definition',#1,'design');
#5=PRODUCT('NexyFab_C4_Box_Assembly','NexyFab_C4_Box_Assembly','',(#3));
#6=PRODUCT_DEFINITION_FORMATION('','',#5);
#7=PRODUCT_DEFINITION('design','',#6,#4);
#8=CARTESIAN_POINT('',(0.0,0.0,0.0));
#9=DIRECTION('',(0.0,0.0,1.0));
#10=DIRECTION('',(1.0,0.0,0.0));
#11=AXIS2_PLACEMENT_3D('',#8,#9,#10);
#12=(LENGTH_UNIT() NAMED_UNIT(*) SI_UNIT(.MILLI.,.METRE.));
#13=(NAMED_UNIT(*) PLANE_ANGLE_UNIT() SI_UNIT($,.RADIAN.));
#14=(NAMED_UNIT(*) SI_UNIT($,.STERADIAN.) SOLID_ANGLE_UNIT());
#15=UNCERTAINTY_MEASURE_WITH_UNIT(LENGTH_MEASURE(1.E-7),#12,'distance_accuracy_value','confusion accuracy');
#16=(GEOMETRIC_REPRESENTATION_CONTEXT(3) GLOBAL_UNCERTAINTY_ASSIGNED_CONTEXT((#15)) GLOBAL_UNIT_ASSIGNED_CONTEXT((#12,#13,#14)) REPRESENTATION_CONTEXT('Assembly Context','3D'));
#17=SHAPE_REPRESENTATION('NexyFab_C4_Box_Assembly',(#11),#16);
#18=PRODUCT_DEFINITION_SHAPE('','',#7);
#19=SHAPE_DEFINITION_REPRESENTATION(#18,#17);
#20=NEXT_ASSEMBLY_USAGE_OCCURRENCE('NexyFab_C4_Box_Assembly_1','Base Plate','',#7,#1158,$);
#21=CARTESIAN_POINT('',(0.0,0.0,0.0));
#22=DIRECTION('',(0.0,0.0,1.0));
#23=DIRECTION('',(1.0,0.0,0.0));
#24=AXIS2_PLACEMENT_3D('',#21,#22,#23);
#25=CARTESIAN_POINT('',(0.000000,0.000000,0.000000));
#26=DIRECTION('',(0.000000,0.000000,1.000000));
#27=DIRECTION('',(1.000000,0.000000,0.000000));
#28=AXIS2_PLACEMENT_3D('',#25,#26,#27);
#29=ITEM_DEFINED_TRANSFORMATION('NexyFab_C4_Box_Assembly_1_xfm','',#28,#24);
#30=(REPRESENTATION_RELATIONSHIP('','',#17,#1160) REPRESENTATION_RELATIONSHIP_WITH_TRANSFORMATION(#29) SHAPE_REPRESENTATION_RELATIONSHIP());
#31=PRODUCT_DEFINITION_SHAPE('','',#20);
#32=CONTEXT_DEPENDENT_SHAPE_REPRESENTATION(#30,#31);
#33=NEXT_ASSEMBLY_USAGE_OCCURRENCE('NexyFab_C4_Box_Assembly_2','Mount Block','',#7,#1419,$);
#34=CARTESIAN_POINT('',(0.0,0.0,0.0));
#35=DIRECTION('',(0.0,0.0,1.0));
#36=DIRECTION('',(1.0,0.0,0.0));
#37=AXIS2_PLACEMENT_3D('',#34,#35,#36);
#38=CARTESIAN_POINT('',(20.000000,15.000000,8.000000));
#39=DIRECTION('',(0.000000,0.000000,1.000000));
#40=DIRECTION('',(1.000000,0.000000,0.000000));
#41=AXIS2_PLACEMENT_3D('',#38,#39,#40);
#42=ITEM_DEFINED_TRANSFORMATION('NexyFab_C4_Box_Assembly_2_xfm','',#41,#37);
#43=(REPRESENTATION_RELATIONSHIP('','',#17,#1421) REPRESENTATION_RELATIONSHIP_WITH_TRANSFORMATION(#42) SHAPE_REPRESENTATION_RELATIONSHIP());
#44=PRODUCT_DEFINITION_SHAPE('','',#33);
#45=CONTEXT_DEPENDENT_SHAPE_REPRESENTATION(#43,#44);
#1010=CARTESIAN_POINT('',(0.,0.,0.));
#1011=CARTESIAN_POINT('',(100.,0.,0.));
#1012=CARTESIAN_POINT('',(100.,60.,0.));
#1013=CARTESIAN_POINT('',(0.,60.,0.));
#1014=CARTESIAN_POINT('',(0.,0.,8.));
#1015=CARTESIAN_POINT('',(100.,0.,8.));
#1016=CARTESIAN_POINT('',(100.,60.,8.));
#1017=CARTESIAN_POINT('',(0.,60.,8.));
#1018=VERTEX_POINT('',#1010);
#1019=VERTEX_POINT('',#1011);
#1020=VERTEX_POINT('',#1012);
#1021=VERTEX_POINT('',#1013);
#1022=VERTEX_POINT('',#1014);
#1023=VERTEX_POINT('',#1015);
#1024=VERTEX_POINT('',#1016);
#1025=VERTEX_POINT('',#1017);
#1026=DIRECTION('',(1.,0.,0.));
#1027=VECTOR('',#1026,100.);
#1028=LINE('',#1010,#1027);
#1029=EDGE_CURVE('',#1018,#1019,#1028,.T.);
#1030=DIRECTION('',(0.,1.,0.));
#1031=VECTOR('',#1030,60.);
#1032=LINE('',#1011,#1031);
#1033=EDGE_CURVE('',#1019,#1020,#1032,.T.);
#1034=DIRECTION('',(-1.,0.,0.));
#1035=VECTOR('',#1034,100.);
#1036=LINE('',#1012,#1035);
#1037=EDGE_CURVE('',#1020,#1021,#1036,.T.);
#1038=DIRECTION('',(0.,-1.,0.));
#1039=VECTOR('',#1038,60.);
#1040=LINE('',#1013,#1039);
#1041=EDGE_CURVE('',#1021,#1018,#1040,.T.);
#1042=DIRECTION('',(1.,0.,0.));
#1043=VECTOR('',#1042,100.);
#1044=LINE('',#1014,#1043);
#1045=EDGE_CURVE('',#1022,#1023,#1044,.T.);
#1046=DIRECTION('',(0.,1.,0.));
#1047=VECTOR('',#1046,60.);
#1048=LINE('',#1015,#1047);
#1049=EDGE_CURVE('',#1023,#1024,#1048,.T.);
#1050=DIRECTION('',(-1.,0.,0.));
#1051=VECTOR('',#1050,100.);
#1052=LINE('',#1016,#1051);
#1053=EDGE_CURVE('',#1024,#1025,#1052,.T.);
#1054=DIRECTION('',(0.,-1.,0.));
#1055=VECTOR('',#1054,60.);
#1056=LINE('',#1017,#1055);
#1057=EDGE_CURVE('',#1025,#1022,#1056,.T.);
#1058=DIRECTION('',(0.,0.,1.));
#1059=VECTOR('',#1058,8.);
#1060=LINE('',#1010,#1059);
#1061=EDGE_CURVE('',#1018,#1022,#1060,.T.);
#1062=DIRECTION('',(0.,0.,1.));
#1063=VECTOR('',#1062,8.);
#1064=LINE('',#1011,#1063);
#1065=EDGE_CURVE('',#1019,#1023,#1064,.T.);
#1066=DIRECTION('',(0.,0.,1.));
#1067=VECTOR('',#1066,8.);
#1068=LINE('',#1012,#1067);
#1069=EDGE_CURVE('',#1020,#1024,#1068,.T.);
#1070=DIRECTION('',(0.,0.,1.));
#1071=VECTOR('',#1070,8.);
#1072=LINE('',#1013,#1071);
#1073=EDGE_CURVE('',#1021,#1025,#1072,.T.);
#1074=ORIENTED_EDGE('',*,*,#1029,.T.);
#1075=ORIENTED_EDGE('',*,*,#1065,.T.);
#1076=ORIENTED_EDGE('',*,*,#1045,.F.);
#1077=ORIENTED_EDGE('',*,*,#1061,.F.);
#1078=EDGE_LOOP('',(#1074,#1075,#1076,#1077));
#1079=FACE_OUTER_BOUND('',#1078,.T.);
#1080=DIRECTION('',(0.,-1.,0.));
#1081=DIRECTION('',(1.,0.,0.));
#1082=AXIS2_PLACEMENT_3D('',#1010,#1080,#1081);
#1083=PLANE('',#1082);
#1084=ADVANCED_FACE('',(#1079),#1083,.T.);
#1085=ORIENTED_EDGE('',*,*,#1033,.T.);
#1086=ORIENTED_EDGE('',*,*,#1069,.T.);
#1087=ORIENTED_EDGE('',*,*,#1049,.F.);
#1088=ORIENTED_EDGE('',*,*,#1065,.F.);
#1089=EDGE_LOOP('',(#1085,#1086,#1087,#1088));
#1090=FACE_OUTER_BOUND('',#1089,.T.);
#1091=DIRECTION('',(1.,0.,0.));
#1092=DIRECTION('',(0.,1.,0.));
#1093=AXIS2_PLACEMENT_3D('',#1011,#1091,#1092);
#1094=PLANE('',#1093);
#1095=ADVANCED_FACE('',(#1090),#1094,.T.);
#1096=ORIENTED_EDGE('',*,*,#1037,.T.);
#1097=ORIENTED_EDGE('',*,*,#1073,.T.);
#1098=ORIENTED_EDGE('',*,*,#1053,.F.);
#1099=ORIENTED_EDGE('',*,*,#1069,.F.);
#1100=EDGE_LOOP('',(#1096,#1097,#1098,#1099));
#1101=FACE_OUTER_BOUND('',#1100,.T.);
#1102=DIRECTION('',(0.,1.,0.));
#1103=DIRECTION('',(1.,0.,0.));
#1104=AXIS2_PLACEMENT_3D('',#1012,#1102,#1103);
#1105=PLANE('',#1104);
#1106=ADVANCED_FACE('',(#1101),#1105,.T.);
#1107=ORIENTED_EDGE('',*,*,#1041,.T.);
#1108=ORIENTED_EDGE('',*,*,#1061,.T.);
#1109=ORIENTED_EDGE('',*,*,#1057,.F.);
#1110=ORIENTED_EDGE('',*,*,#1073,.F.);
#1111=EDGE_LOOP('',(#1107,#1108,#1109,#1110));
#1112=FACE_OUTER_BOUND('',#1111,.T.);
#1113=DIRECTION('',(-1.,0.,0.));
#1114=DIRECTION('',(0.,1.,0.));
#1115=AXIS2_PLACEMENT_3D('',#1013,#1113,#1114);
#1116=PLANE('',#1115);
#1117=ADVANCED_FACE('',(#1112),#1116,.T.);
#1118=ORIENTED_EDGE('',*,*,#1041,.F.);
#1119=ORIENTED_EDGE('',*,*,#1037,.F.);
#1120=ORIENTED_EDGE('',*,*,#1033,.F.);
#1121=ORIENTED_EDGE('',*,*,#1029,.F.);
#1122=EDGE_LOOP('',(#1118,#1119,#1120,#1121));
#1123=FACE_OUTER_BOUND('',#1122,.T.);
#1124=DIRECTION('',(0.,0.,-1.));
#1125=DIRECTION('',(1.,0.,0.));
#1126=AXIS2_PLACEMENT_3D('',#1010,#1124,#1125);
#1127=PLANE('',#1126);
#1128=ADVANCED_FACE('',(#1123),#1127,.T.);
#1129=ORIENTED_EDGE('',*,*,#1045,.T.);
#1130=ORIENTED_EDGE('',*,*,#1049,.T.);
#1131=ORIENTED_EDGE('',*,*,#1053,.T.);
#1132=ORIENTED_EDGE('',*,*,#1057,.T.);
#1133=EDGE_LOOP('',(#1129,#1130,#1131,#1132));
#1134=FACE_OUTER_BOUND('',#1133,.T.);
#1135=DIRECTION('',(0.,0.,1.));
#1136=DIRECTION('',(1.,0.,0.));
#1137=AXIS2_PLACEMENT_3D('',#1014,#1135,#1136);
#1138=PLANE('',#1137);
#1139=ADVANCED_FACE('',(#1134),#1138,.T.);
#1140=CLOSED_SHELL('',(#1084,#1095,#1106,#1117,#1128,#1139));
#1141=MANIFOLD_SOLID_BREP('',#1140);
#1142=CARTESIAN_POINT('',(0.,0.,0.));
#1143=DIRECTION('',(0.,0.,1.));
#1144=DIRECTION('',(1.,0.,0.));
#1145=AXIS2_PLACEMENT_3D('',#1142,#1143,#1144);
#1146=(LENGTH_UNIT() NAMED_UNIT(*) SI_UNIT(.MILLI.,.METRE.));
#1147=(NAMED_UNIT(*) PLANE_ANGLE_UNIT() SI_UNIT($,.RADIAN.));
#1148=(NAMED_UNIT(*) SI_UNIT($,.STERADIAN.) SOLID_ANGLE_UNIT());
#1149=UNCERTAINTY_MEASURE_WITH_UNIT(LENGTH_MEASURE(1.E-7),#1146,'distance_accuracy_value','confusion accuracy');
#1150=(GEOMETRIC_REPRESENTATION_CONTEXT(3) GLOBAL_UNCERTAINTY_ASSIGNED_CONTEXT((#1149)) GLOBAL_UNIT_ASSIGNED_CONTEXT((#1146,#1147,#1148)) REPRESENTATION_CONTEXT('Context','3D'));
#1151=APPLICATION_CONTEXT('core data for automotive mechanical design processes');
#1152=APPLICATION_PROTOCOL_DEFINITION('international standard','automotive_design',2010,#1151);
#1153=PRODUCT_CONTEXT('',#1151,'mechanical');
#1154=PRODUCT_DEFINITION_CONTEXT('part definition',#1151,'design');
#1155=PRODUCT('base-plate','base-plate','',(#1153));
#1156=PRODUCT_RELATED_PRODUCT_CATEGORY('part','',(#1155));
#1157=PRODUCT_DEFINITION_FORMATION_WITH_SPECIFIED_SOURCE(' ',' ',#1155,.NOT_KNOWN.);
#1158=PRODUCT_DEFINITION(' ','',#1157,#1154);
#1159=PRODUCT_DEFINITION_SHAPE('','',#1158);
#1160=ADVANCED_BREP_SHAPE_REPRESENTATION('base-plate',(#1145,#1141),#1150);
#1161=SHAPE_DEFINITION_REPRESENTATION(#1159,#1160);
#1271=CARTESIAN_POINT('',(0.,0.,0.));
#1272=CARTESIAN_POINT('',(40.,0.,0.));
#1273=CARTESIAN_POINT('',(40.,20.,0.));
#1274=CARTESIAN_POINT('',(0.,20.,0.));
#1275=CARTESIAN_POINT('',(0.,0.,12.));
#1276=CARTESIAN_POINT('',(40.,0.,12.));
#1277=CARTESIAN_POINT('',(40.,20.,12.));
#1278=CARTESIAN_POINT('',(0.,20.,12.));
#1279=VERTEX_POINT('',#1271);
#1280=VERTEX_POINT('',#1272);
#1281=VERTEX_POINT('',#1273);
#1282=VERTEX_POINT('',#1274);
#1283=VERTEX_POINT('',#1275);
#1284=VERTEX_POINT('',#1276);
#1285=VERTEX_POINT('',#1277);
#1286=VERTEX_POINT('',#1278);
#1287=DIRECTION('',(1.,0.,0.));
#1288=VECTOR('',#1287,40.);
#1289=LINE('',#1271,#1288);
#1290=EDGE_CURVE('',#1279,#1280,#1289,.T.);
#1291=DIRECTION('',(0.,1.,0.));
#1292=VECTOR('',#1291,20.);
#1293=LINE('',#1272,#1292);
#1294=EDGE_CURVE('',#1280,#1281,#1293,.T.);
#1295=DIRECTION('',(-1.,0.,0.));
#1296=VECTOR('',#1295,40.);
#1297=LINE('',#1273,#1296);
#1298=EDGE_CURVE('',#1281,#1282,#1297,.T.);
#1299=DIRECTION('',(0.,-1.,0.));
#1300=VECTOR('',#1299,20.);
#1301=LINE('',#1274,#1300);
#1302=EDGE_CURVE('',#1282,#1279,#1301,.T.);
#1303=DIRECTION('',(1.,0.,0.));
#1304=VECTOR('',#1303,40.);
#1305=LINE('',#1275,#1304);
#1306=EDGE_CURVE('',#1283,#1284,#1305,.T.);
#1307=DIRECTION('',(0.,1.,0.));
#1308=VECTOR('',#1307,20.);
#1309=LINE('',#1276,#1308);
#1310=EDGE_CURVE('',#1284,#1285,#1309,.T.);
#1311=DIRECTION('',(-1.,0.,0.));
#1312=VECTOR('',#1311,40.);
#1313=LINE('',#1277,#1312);
#1314=EDGE_CURVE('',#1285,#1286,#1313,.T.);
#1315=DIRECTION('',(0.,-1.,0.));
#1316=VECTOR('',#1315,20.);
#1317=LINE('',#1278,#1316);
#1318=EDGE_CURVE('',#1286,#1283,#1317,.T.);
#1319=DIRECTION('',(0.,0.,1.));
#1320=VECTOR('',#1319,12.);
#1321=LINE('',#1271,#1320);
#1322=EDGE_CURVE('',#1279,#1283,#1321,.T.);
#1323=DIRECTION('',(0.,0.,1.));
#1324=VECTOR('',#1323,12.);
#1325=LINE('',#1272,#1324);
#1326=EDGE_CURVE('',#1280,#1284,#1325,.T.);
#1327=DIRECTION('',(0.,0.,1.));
#1328=VECTOR('',#1327,12.);
#1329=LINE('',#1273,#1328);
#1330=EDGE_CURVE('',#1281,#1285,#1329,.T.);
#1331=DIRECTION('',(0.,0.,1.));
#1332=VECTOR('',#1331,12.);
#1333=LINE('',#1274,#1332);
#1334=EDGE_CURVE('',#1282,#1286,#1333,.T.);
#1335=ORIENTED_EDGE('',*,*,#1290,.T.);
#1336=ORIENTED_EDGE('',*,*,#1326,.T.);
#1337=ORIENTED_EDGE('',*,*,#1306,.F.);
#1338=ORIENTED_EDGE('',*,*,#1322,.F.);
#1339=EDGE_LOOP('',(#1335,#1336,#1337,#1338));
#1340=FACE_OUTER_BOUND('',#1339,.T.);
#1341=DIRECTION('',(0.,-1.,0.));
#1342=DIRECTION('',(1.,0.,0.));
#1343=AXIS2_PLACEMENT_3D('',#1271,#1341,#1342);
#1344=PLANE('',#1343);
#1345=ADVANCED_FACE('',(#1340),#1344,.T.);
#1346=ORIENTED_EDGE('',*,*,#1294,.T.);
#1347=ORIENTED_EDGE('',*,*,#1330,.T.);
#1348=ORIENTED_EDGE('',*,*,#1310,.F.);
#1349=ORIENTED_EDGE('',*,*,#1326,.F.);
#1350=EDGE_LOOP('',(#1346,#1347,#1348,#1349));
#1351=FACE_OUTER_BOUND('',#1350,.T.);
#1352=DIRECTION('',(1.,0.,0.));
#1353=DIRECTION('',(0.,1.,0.));
#1354=AXIS2_PLACEMENT_3D('',#1272,#1352,#1353);
#1355=PLANE('',#1354);
#1356=ADVANCED_FACE('',(#1351),#1355,.T.);
#1357=ORIENTED_EDGE('',*,*,#1298,.T.);
#1358=ORIENTED_EDGE('',*,*,#1334,.T.);
#1359=ORIENTED_EDGE('',*,*,#1314,.F.);
#1360=ORIENTED_EDGE('',*,*,#1330,.F.);
#1361=EDGE_LOOP('',(#1357,#1358,#1359,#1360));
#1362=FACE_OUTER_BOUND('',#1361,.T.);
#1363=DIRECTION('',(0.,1.,0.));
#1364=DIRECTION('',(1.,0.,0.));
#1365=AXIS2_PLACEMENT_3D('',#1273,#1363,#1364);
#1366=PLANE('',#1365);
#1367=ADVANCED_FACE('',(#1362),#1366,.T.);
#1368=ORIENTED_EDGE('',*,*,#1302,.T.);
#1369=ORIENTED_EDGE('',*,*,#1322,.T.);
#1370=ORIENTED_EDGE('',*,*,#1318,.F.);
#1371=ORIENTED_EDGE('',*,*,#1334,.F.);
#1372=EDGE_LOOP('',(#1368,#1369,#1370,#1371));
#1373=FACE_OUTER_BOUND('',#1372,.T.);
#1374=DIRECTION('',(-1.,0.,0.));
#1375=DIRECTION('',(0.,1.,0.));
#1376=AXIS2_PLACEMENT_3D('',#1274,#1374,#1375);
#1377=PLANE('',#1376);
#1378=ADVANCED_FACE('',(#1373),#1377,.T.);
#1379=ORIENTED_EDGE('',*,*,#1302,.F.);
#1380=ORIENTED_EDGE('',*,*,#1298,.F.);
#1381=ORIENTED_EDGE('',*,*,#1294,.F.);
#1382=ORIENTED_EDGE('',*,*,#1290,.F.);
#1383=EDGE_LOOP('',(#1379,#1380,#1381,#1382));
#1384=FACE_OUTER_BOUND('',#1383,.T.);
#1385=DIRECTION('',(0.,0.,-1.));
#1386=DIRECTION('',(1.,0.,0.));
#1387=AXIS2_PLACEMENT_3D('',#1271,#1385,#1386);
#1388=PLANE('',#1387);
#1389=ADVANCED_FACE('',(#1384),#1388,.T.);
#1390=ORIENTED_EDGE('',*,*,#1306,.T.);
#1391=ORIENTED_EDGE('',*,*,#1310,.T.);
#1392=ORIENTED_EDGE('',*,*,#1314,.T.);
#1393=ORIENTED_EDGE('',*,*,#1318,.T.);
#1394=EDGE_LOOP('',(#1390,#1391,#1392,#1393));
#1395=FACE_OUTER_BOUND('',#1394,.T.);
#1396=DIRECTION('',(0.,0.,1.));
#1397=DIRECTION('',(1.,0.,0.));
#1398=AXIS2_PLACEMENT_3D('',#1275,#1396,#1397);
#1399=PLANE('',#1398);
#1400=ADVANCED_FACE('',(#1395),#1399,.T.);
#1401=CLOSED_SHELL('',(#1345,#1356,#1367,#1378,#1389,#1400));
#1402=MANIFOLD_SOLID_BREP('',#1401);
#1403=CARTESIAN_POINT('',(0.,0.,0.));
#1404=DIRECTION('',(0.,0.,1.));
#1405=DIRECTION('',(1.,0.,0.));
#1406=AXIS2_PLACEMENT_3D('',#1403,#1404,#1405);
#1407=(LENGTH_UNIT() NAMED_UNIT(*) SI_UNIT(.MILLI.,.METRE.));
#1408=(NAMED_UNIT(*) PLANE_ANGLE_UNIT() SI_UNIT($,.RADIAN.));
#1409=(NAMED_UNIT(*) SI_UNIT($,.STERADIAN.) SOLID_ANGLE_UNIT());
#1410=UNCERTAINTY_MEASURE_WITH_UNIT(LENGTH_MEASURE(1.E-7),#1407,'distance_accuracy_value','confusion accuracy');
#1411=(GEOMETRIC_REPRESENTATION_CONTEXT(3) GLOBAL_UNCERTAINTY_ASSIGNED_CONTEXT((#1410)) GLOBAL_UNIT_ASSIGNED_CONTEXT((#1407,#1408,#1409)) REPRESENTATION_CONTEXT('Context','3D'));
#1412=APPLICATION_CONTEXT('core data for automotive mechanical design processes');
#1413=APPLICATION_PROTOCOL_DEFINITION('international standard','automotive_design',2010,#1412);
#1414=PRODUCT_CONTEXT('',#1412,'mechanical');
#1415=PRODUCT_DEFINITION_CONTEXT('part definition',#1412,'design');
#1416=PRODUCT('mount-block','mount-block','',(#1414));
#1417=PRODUCT_RELATED_PRODUCT_CATEGORY('part','',(#1416));
#1418=PRODUCT_DEFINITION_FORMATION_WITH_SPECIFIED_SOURCE(' ',' ',#1416,.NOT_KNOWN.);
#1419=PRODUCT_DEFINITION(' ','',#1418,#1415);
#1420=PRODUCT_DEFINITION_SHAPE('','',#1419);
#1421=ADVANCED_BREP_SHAPE_REPRESENTATION('mount-block',(#1406,#1402),#1411);
#1422=SHAPE_DEFINITION_REPRESENTATION(#1420,#1421);
ENDSEC;
END-ISO-10303-21;
