ISO-10303-21;
HEADER;
FILE_DESCRIPTION(('NexyFab Pro feature export'),'2;1');
FILE_NAME('nexyfab.step','2026-08-06T13:07:18.904Z',(''),(''),'NEXYFAB-PRO','NEXYFAB-PRO','');
FILE_SCHEMA(('AUTOMOTIVE_DESIGN { 1 0 10303 214 3 1 1 1 }'));
ENDSEC;
DATA;
#10=APPLICATION_CONTEXT('core data for automotive mechanical design processes');
#11=APPLICATION_PROTOCOL_DEFINITION('international standard','automotive_design',2010,#10);
#12=PRODUCT_CONTEXT('',#10,'mechanical');
#13=PRODUCT_DEFINITION_CONTEXT('part definition',#10,'design');
#14=PRODUCT('multibody_weldment','multibody_weldment','',(#12));
#15=PRODUCT_RELATED_PRODUCT_CATEGORY('assembly','',(#14));
#16=PRODUCT_DEFINITION_FORMATION_WITH_SPECIFIED_SOURCE(' ',' ',#14,.NOT_KNOWN.);
#17=PRODUCT_DEFINITION(' ','',#16,#13);
#18=CARTESIAN_POINT('',(0.,0.,0.));
#19=CARTESIAN_POINT('',(20.,0.,0.));
#20=CARTESIAN_POINT('',(20.,2.,0.));
#21=CARTESIAN_POINT('',(0.,2.,0.));
#22=CARTESIAN_POINT('',(0.,0.,2.));
#23=CARTESIAN_POINT('',(20.,0.,2.));
#24=CARTESIAN_POINT('',(20.,2.,2.));
#25=CARTESIAN_POINT('',(0.,2.,2.));
#26=VERTEX_POINT('',#18);
#27=VERTEX_POINT('',#19);
#28=VERTEX_POINT('',#20);
#29=VERTEX_POINT('',#21);
#30=VERTEX_POINT('',#22);
#31=VERTEX_POINT('',#23);
#32=VERTEX_POINT('',#24);
#33=VERTEX_POINT('',#25);
#34=DIRECTION('',(1.,0.,0.));
#35=VECTOR('',#34,20.);
#36=LINE('',#18,#35);
#37=EDGE_CURVE('',#26,#27,#36,.T.);
#38=DIRECTION('',(0.,1.,0.));
#39=VECTOR('',#38,2.);
#40=LINE('',#19,#39);
#41=EDGE_CURVE('',#27,#28,#40,.T.);
#42=DIRECTION('',(-1.,0.,0.));
#43=VECTOR('',#42,20.);
#44=LINE('',#20,#43);
#45=EDGE_CURVE('',#28,#29,#44,.T.);
#46=DIRECTION('',(0.,-1.,0.));
#47=VECTOR('',#46,2.);
#48=LINE('',#21,#47);
#49=EDGE_CURVE('',#29,#26,#48,.T.);
#50=DIRECTION('',(1.,0.,0.));
#51=VECTOR('',#50,20.);
#52=LINE('',#22,#51);
#53=EDGE_CURVE('',#30,#31,#52,.T.);
#54=DIRECTION('',(0.,1.,0.));
#55=VECTOR('',#54,2.);
#56=LINE('',#23,#55);
#57=EDGE_CURVE('',#31,#32,#56,.T.);
#58=DIRECTION('',(-1.,0.,0.));
#59=VECTOR('',#58,20.);
#60=LINE('',#24,#59);
#61=EDGE_CURVE('',#32,#33,#60,.T.);
#62=DIRECTION('',(0.,-1.,0.));
#63=VECTOR('',#62,2.);
#64=LINE('',#25,#63);
#65=EDGE_CURVE('',#33,#30,#64,.T.);
#66=DIRECTION('',(0.,0.,1.));
#67=VECTOR('',#66,2.);
#68=LINE('',#18,#67);
#69=EDGE_CURVE('',#26,#30,#68,.T.);
#70=DIRECTION('',(0.,0.,1.));
#71=VECTOR('',#70,2.);
#72=LINE('',#19,#71);
#73=EDGE_CURVE('',#27,#31,#72,.T.);
#74=DIRECTION('',(0.,0.,1.));
#75=VECTOR('',#74,2.);
#76=LINE('',#20,#75);
#77=EDGE_CURVE('',#28,#32,#76,.T.);
#78=DIRECTION('',(0.,0.,1.));
#79=VECTOR('',#78,2.);
#80=LINE('',#21,#79);
#81=EDGE_CURVE('',#29,#33,#80,.T.);
#82=ORIENTED_EDGE('',*,*,#37,.T.);
#83=ORIENTED_EDGE('',*,*,#73,.T.);
#84=ORIENTED_EDGE('',*,*,#53,.F.);
#85=ORIENTED_EDGE('',*,*,#69,.F.);
#86=EDGE_LOOP('',(#82,#83,#84,#85));
#87=FACE_OUTER_BOUND('',#86,.T.);
#88=DIRECTION('',(0.,-1.,0.));
#89=DIRECTION('',(1.,0.,0.));
#90=AXIS2_PLACEMENT_3D('',#18,#88,#89);
#91=PLANE('',#90);
#92=ADVANCED_FACE('',(#87),#91,.T.);
#93=ORIENTED_EDGE('',*,*,#41,.T.);
#94=ORIENTED_EDGE('',*,*,#77,.T.);
#95=ORIENTED_EDGE('',*,*,#57,.F.);
#96=ORIENTED_EDGE('',*,*,#73,.F.);
#97=EDGE_LOOP('',(#93,#94,#95,#96));
#98=FACE_OUTER_BOUND('',#97,.T.);
#99=DIRECTION('',(1.,0.,0.));
#100=DIRECTION('',(0.,1.,0.));
#101=AXIS2_PLACEMENT_3D('',#19,#99,#100);
#102=PLANE('',#101);
#103=ADVANCED_FACE('',(#98),#102,.T.);
#104=ORIENTED_EDGE('',*,*,#45,.T.);
#105=ORIENTED_EDGE('',*,*,#81,.T.);
#106=ORIENTED_EDGE('',*,*,#61,.F.);
#107=ORIENTED_EDGE('',*,*,#77,.F.);
#108=EDGE_LOOP('',(#104,#105,#106,#107));
#109=FACE_OUTER_BOUND('',#108,.T.);
#110=DIRECTION('',(0.,1.,0.));
#111=DIRECTION('',(1.,0.,0.));
#112=AXIS2_PLACEMENT_3D('',#20,#110,#111);
#113=PLANE('',#112);
#114=ADVANCED_FACE('',(#109),#113,.T.);
#115=ORIENTED_EDGE('',*,*,#49,.T.);
#116=ORIENTED_EDGE('',*,*,#69,.T.);
#117=ORIENTED_EDGE('',*,*,#65,.F.);
#118=ORIENTED_EDGE('',*,*,#81,.F.);
#119=EDGE_LOOP('',(#115,#116,#117,#118));
#120=FACE_OUTER_BOUND('',#119,.T.);
#121=DIRECTION('',(-1.,0.,0.));
#122=DIRECTION('',(0.,1.,0.));
#123=AXIS2_PLACEMENT_3D('',#21,#121,#122);
#124=PLANE('',#123);
#125=ADVANCED_FACE('',(#120),#124,.T.);
#126=ORIENTED_EDGE('',*,*,#49,.F.);
#127=ORIENTED_EDGE('',*,*,#45,.F.);
#128=ORIENTED_EDGE('',*,*,#41,.F.);
#129=ORIENTED_EDGE('',*,*,#37,.F.);
#130=EDGE_LOOP('',(#126,#127,#128,#129));
#131=FACE_OUTER_BOUND('',#130,.T.);
#132=DIRECTION('',(0.,0.,-1.));
#133=DIRECTION('',(1.,0.,0.));
#134=AXIS2_PLACEMENT_3D('',#18,#132,#133);
#135=PLANE('',#134);
#136=ADVANCED_FACE('',(#131),#135,.T.);
#137=ORIENTED_EDGE('',*,*,#53,.T.);
#138=ORIENTED_EDGE('',*,*,#57,.T.);
#139=ORIENTED_EDGE('',*,*,#61,.T.);
#140=ORIENTED_EDGE('',*,*,#65,.T.);
#141=EDGE_LOOP('',(#137,#138,#139,#140));
#142=FACE_OUTER_BOUND('',#141,.T.);
#143=DIRECTION('',(0.,0.,1.));
#144=DIRECTION('',(1.,0.,0.));
#145=AXIS2_PLACEMENT_3D('',#22,#143,#144);
#146=PLANE('',#145);
#147=ADVANCED_FACE('',(#142),#146,.T.);
#148=CLOSED_SHELL('',(#92,#103,#114,#125,#136,#147));
#149=MANIFOLD_SOLID_BREP('',#148);
#150=CARTESIAN_POINT('',(0.,0.,0.));
#151=DIRECTION('',(0.,0.,1.));
#152=DIRECTION('',(1.,0.,0.));
#153=AXIS2_PLACEMENT_3D('',#150,#151,#152);
#154=( LENGTH_UNIT() NAMED_UNIT(*) SI_UNIT(.MILLI.,.METRE.) );
#155=( NAMED_UNIT(*) PLANE_ANGLE_UNIT() SI_UNIT($,.RADIAN.) );
#156=( NAMED_UNIT(*) SI_UNIT($,.STERADIAN.) SOLID_ANGLE_UNIT() );
#157=UNCERTAINTY_MEASURE_WITH_UNIT(LENGTH_MEASURE(1.E-7),#154,'distance_accuracy_value','confusion accuracy');
#158=( GEOMETRIC_REPRESENTATION_CONTEXT(3) GLOBAL_UNCERTAINTY_ASSIGNED_CONTEXT((#157)) GLOBAL_UNIT_ASSIGNED_CONTEXT((#154,#155,#156)) REPRESENTATION_CONTEXT('Context','3D') );
#159=CARTESIAN_POINT('',(0.,10.,0.));
#160=CARTESIAN_POINT('',(20.,10.,0.));
#161=CARTESIAN_POINT('',(20.,12.,0.));
#162=CARTESIAN_POINT('',(0.,12.,0.));
#163=CARTESIAN_POINT('',(0.,10.,2.));
#164=CARTESIAN_POINT('',(20.,10.,2.));
#165=CARTESIAN_POINT('',(20.,12.,2.));
#166=CARTESIAN_POINT('',(0.,12.,2.));
#167=VERTEX_POINT('',#159);
#168=VERTEX_POINT('',#160);
#169=VERTEX_POINT('',#161);
#170=VERTEX_POINT('',#162);
#171=VERTEX_POINT('',#163);
#172=VERTEX_POINT('',#164);
#173=VERTEX_POINT('',#165);
#174=VERTEX_POINT('',#166);
#175=DIRECTION('',(1.,0.,0.));
#176=VECTOR('',#175,20.);
#177=LINE('',#159,#176);
#178=EDGE_CURVE('',#167,#168,#177,.T.);
#179=DIRECTION('',(0.,1.,0.));
#180=VECTOR('',#179,2.);
#181=LINE('',#160,#180);
#182=EDGE_CURVE('',#168,#169,#181,.T.);
#183=DIRECTION('',(-1.,0.,0.));
#184=VECTOR('',#183,20.);
#185=LINE('',#161,#184);
#186=EDGE_CURVE('',#169,#170,#185,.T.);
#187=DIRECTION('',(0.,-1.,0.));
#188=VECTOR('',#187,2.);
#189=LINE('',#162,#188);
#190=EDGE_CURVE('',#170,#167,#189,.T.);
#191=DIRECTION('',(1.,0.,0.));
#192=VECTOR('',#191,20.);
#193=LINE('',#163,#192);
#194=EDGE_CURVE('',#171,#172,#193,.T.);
#195=DIRECTION('',(0.,1.,0.));
#196=VECTOR('',#195,2.);
#197=LINE('',#164,#196);
#198=EDGE_CURVE('',#172,#173,#197,.T.);
#199=DIRECTION('',(-1.,0.,0.));
#200=VECTOR('',#199,20.);
#201=LINE('',#165,#200);
#202=EDGE_CURVE('',#173,#174,#201,.T.);
#203=DIRECTION('',(0.,-1.,0.));
#204=VECTOR('',#203,2.);
#205=LINE('',#166,#204);
#206=EDGE_CURVE('',#174,#171,#205,.T.);
#207=DIRECTION('',(0.,0.,1.));
#208=VECTOR('',#207,2.);
#209=LINE('',#159,#208);
#210=EDGE_CURVE('',#167,#171,#209,.T.);
#211=DIRECTION('',(0.,0.,1.));
#212=VECTOR('',#211,2.);
#213=LINE('',#160,#212);
#214=EDGE_CURVE('',#168,#172,#213,.T.);
#215=DIRECTION('',(0.,0.,1.));
#216=VECTOR('',#215,2.);
#217=LINE('',#161,#216);
#218=EDGE_CURVE('',#169,#173,#217,.T.);
#219=DIRECTION('',(0.,0.,1.));
#220=VECTOR('',#219,2.);
#221=LINE('',#162,#220);
#222=EDGE_CURVE('',#170,#174,#221,.T.);
#223=ORIENTED_EDGE('',*,*,#178,.T.);
#224=ORIENTED_EDGE('',*,*,#214,.T.);
#225=ORIENTED_EDGE('',*,*,#194,.F.);
#226=ORIENTED_EDGE('',*,*,#210,.F.);
#227=EDGE_LOOP('',(#223,#224,#225,#226));
#228=FACE_OUTER_BOUND('',#227,.T.);
#229=DIRECTION('',(0.,-1.,0.));
#230=DIRECTION('',(1.,0.,0.));
#231=AXIS2_PLACEMENT_3D('',#159,#229,#230);
#232=PLANE('',#231);
#233=ADVANCED_FACE('',(#228),#232,.T.);
#234=ORIENTED_EDGE('',*,*,#182,.T.);
#235=ORIENTED_EDGE('',*,*,#218,.T.);
#236=ORIENTED_EDGE('',*,*,#198,.F.);
#237=ORIENTED_EDGE('',*,*,#214,.F.);
#238=EDGE_LOOP('',(#234,#235,#236,#237));
#239=FACE_OUTER_BOUND('',#238,.T.);
#240=DIRECTION('',(1.,0.,0.));
#241=DIRECTION('',(0.,1.,0.));
#242=AXIS2_PLACEMENT_3D('',#160,#240,#241);
#243=PLANE('',#242);
#244=ADVANCED_FACE('',(#239),#243,.T.);
#245=ORIENTED_EDGE('',*,*,#186,.T.);
#246=ORIENTED_EDGE('',*,*,#222,.T.);
#247=ORIENTED_EDGE('',*,*,#202,.F.);
#248=ORIENTED_EDGE('',*,*,#218,.F.);
#249=EDGE_LOOP('',(#245,#246,#247,#248));
#250=FACE_OUTER_BOUND('',#249,.T.);
#251=DIRECTION('',(0.,1.,0.));
#252=DIRECTION('',(1.,0.,0.));
#253=AXIS2_PLACEMENT_3D('',#161,#251,#252);
#254=PLANE('',#253);
#255=ADVANCED_FACE('',(#250),#254,.T.);
#256=ORIENTED_EDGE('',*,*,#190,.T.);
#257=ORIENTED_EDGE('',*,*,#210,.T.);
#258=ORIENTED_EDGE('',*,*,#206,.F.);
#259=ORIENTED_EDGE('',*,*,#222,.F.);
#260=EDGE_LOOP('',(#256,#257,#258,#259));
#261=FACE_OUTER_BOUND('',#260,.T.);
#262=DIRECTION('',(-1.,0.,0.));
#263=DIRECTION('',(0.,1.,0.));
#264=AXIS2_PLACEMENT_3D('',#162,#262,#263);
#265=PLANE('',#264);
#266=ADVANCED_FACE('',(#261),#265,.T.);
#267=ORIENTED_EDGE('',*,*,#190,.F.);
#268=ORIENTED_EDGE('',*,*,#186,.F.);
#269=ORIENTED_EDGE('',*,*,#182,.F.);
#270=ORIENTED_EDGE('',*,*,#178,.F.);
#271=EDGE_LOOP('',(#267,#268,#269,#270));
#272=FACE_OUTER_BOUND('',#271,.T.);
#273=DIRECTION('',(0.,0.,-1.));
#274=DIRECTION('',(1.,0.,0.));
#275=AXIS2_PLACEMENT_3D('',#159,#273,#274);
#276=PLANE('',#275);
#277=ADVANCED_FACE('',(#272),#276,.T.);
#278=ORIENTED_EDGE('',*,*,#194,.T.);
#279=ORIENTED_EDGE('',*,*,#198,.T.);
#280=ORIENTED_EDGE('',*,*,#202,.T.);
#281=ORIENTED_EDGE('',*,*,#206,.T.);
#282=EDGE_LOOP('',(#278,#279,#280,#281));
#283=FACE_OUTER_BOUND('',#282,.T.);
#284=DIRECTION('',(0.,0.,1.));
#285=DIRECTION('',(1.,0.,0.));
#286=AXIS2_PLACEMENT_3D('',#163,#284,#285);
#287=PLANE('',#286);
#288=ADVANCED_FACE('',(#283),#287,.T.);
#289=CLOSED_SHELL('',(#233,#244,#255,#266,#277,#288));
#290=MANIFOLD_SOLID_BREP('',#289);
#291=CARTESIAN_POINT('',(0.,0.,0.));
#292=DIRECTION('',(0.,0.,1.));
#293=DIRECTION('',(1.,0.,0.));
#294=AXIS2_PLACEMENT_3D('',#291,#292,#293);
#295=( LENGTH_UNIT() NAMED_UNIT(*) SI_UNIT(.MILLI.,.METRE.) );
#296=( NAMED_UNIT(*) PLANE_ANGLE_UNIT() SI_UNIT($,.RADIAN.) );
#297=( NAMED_UNIT(*) SI_UNIT($,.STERADIAN.) SOLID_ANGLE_UNIT() );
#298=UNCERTAINTY_MEASURE_WITH_UNIT(LENGTH_MEASURE(1.E-7),#295,'distance_accuracy_value','confusion accuracy');
#299=( GEOMETRIC_REPRESENTATION_CONTEXT(3) GLOBAL_UNCERTAINTY_ASSIGNED_CONTEXT((#298)) GLOBAL_UNIT_ASSIGNED_CONTEXT((#295,#296,#297)) REPRESENTATION_CONTEXT('Context','3D') );
#300=CARTESIAN_POINT('',(0.,2.,0.));
#301=CARTESIAN_POINT('',(2.,2.,0.));
#302=CARTESIAN_POINT('',(2.,10.,0.));
#303=CARTESIAN_POINT('',(0.,10.,0.));
#304=CARTESIAN_POINT('',(0.,2.,2.));
#305=CARTESIAN_POINT('',(2.,2.,2.));
#306=CARTESIAN_POINT('',(2.,10.,2.));
#307=CARTESIAN_POINT('',(0.,10.,2.));
#308=VERTEX_POINT('',#300);
#309=VERTEX_POINT('',#301);
#310=VERTEX_POINT('',#302);
#311=VERTEX_POINT('',#303);
#312=VERTEX_POINT('',#304);
#313=VERTEX_POINT('',#305);
#314=VERTEX_POINT('',#306);
#315=VERTEX_POINT('',#307);
#316=DIRECTION('',(1.,0.,0.));
#317=VECTOR('',#316,2.);
#318=LINE('',#300,#317);
#319=EDGE_CURVE('',#308,#309,#318,.T.);
#320=DIRECTION('',(0.,1.,0.));
#321=VECTOR('',#320,8.);
#322=LINE('',#301,#321);
#323=EDGE_CURVE('',#309,#310,#322,.T.);
#324=DIRECTION('',(-1.,0.,0.));
#325=VECTOR('',#324,2.);
#326=LINE('',#302,#325);
#327=EDGE_CURVE('',#310,#311,#326,.T.);
#328=DIRECTION('',(0.,-1.,0.));
#329=VECTOR('',#328,8.);
#330=LINE('',#303,#329);
#331=EDGE_CURVE('',#311,#308,#330,.T.);
#332=DIRECTION('',(1.,0.,0.));
#333=VECTOR('',#332,2.);
#334=LINE('',#304,#333);
#335=EDGE_CURVE('',#312,#313,#334,.T.);
#336=DIRECTION('',(0.,1.,0.));
#337=VECTOR('',#336,8.);
#338=LINE('',#305,#337);
#339=EDGE_CURVE('',#313,#314,#338,.T.);
#340=DIRECTION('',(-1.,0.,0.));
#341=VECTOR('',#340,2.);
#342=LINE('',#306,#341);
#343=EDGE_CURVE('',#314,#315,#342,.T.);
#344=DIRECTION('',(0.,-1.,0.));
#345=VECTOR('',#344,8.);
#346=LINE('',#307,#345);
#347=EDGE_CURVE('',#315,#312,#346,.T.);
#348=DIRECTION('',(0.,0.,1.));
#349=VECTOR('',#348,2.);
#350=LINE('',#300,#349);
#351=EDGE_CURVE('',#308,#312,#350,.T.);
#352=DIRECTION('',(0.,0.,1.));
#353=VECTOR('',#352,2.);
#354=LINE('',#301,#353);
#355=EDGE_CURVE('',#309,#313,#354,.T.);
#356=DIRECTION('',(0.,0.,1.));
#357=VECTOR('',#356,2.);
#358=LINE('',#302,#357);
#359=EDGE_CURVE('',#310,#314,#358,.T.);
#360=DIRECTION('',(0.,0.,1.));
#361=VECTOR('',#360,2.);
#362=LINE('',#303,#361);
#363=EDGE_CURVE('',#311,#315,#362,.T.);
#364=ORIENTED_EDGE('',*,*,#319,.T.);
#365=ORIENTED_EDGE('',*,*,#355,.T.);
#366=ORIENTED_EDGE('',*,*,#335,.F.);
#367=ORIENTED_EDGE('',*,*,#351,.F.);
#368=EDGE_LOOP('',(#364,#365,#366,#367));
#369=FACE_OUTER_BOUND('',#368,.T.);
#370=DIRECTION('',(0.,-1.,0.));
#371=DIRECTION('',(1.,0.,0.));
#372=AXIS2_PLACEMENT_3D('',#300,#370,#371);
#373=PLANE('',#372);
#374=ADVANCED_FACE('',(#369),#373,.T.);
#375=ORIENTED_EDGE('',*,*,#323,.T.);
#376=ORIENTED_EDGE('',*,*,#359,.T.);
#377=ORIENTED_EDGE('',*,*,#339,.F.);
#378=ORIENTED_EDGE('',*,*,#355,.F.);
#379=EDGE_LOOP('',(#375,#376,#377,#378));
#380=FACE_OUTER_BOUND('',#379,.T.);
#381=DIRECTION('',(1.,0.,0.));
#382=DIRECTION('',(0.,1.,0.));
#383=AXIS2_PLACEMENT_3D('',#301,#381,#382);
#384=PLANE('',#383);
#385=ADVANCED_FACE('',(#380),#384,.T.);
#386=ORIENTED_EDGE('',*,*,#327,.T.);
#387=ORIENTED_EDGE('',*,*,#363,.T.);
#388=ORIENTED_EDGE('',*,*,#343,.F.);
#389=ORIENTED_EDGE('',*,*,#359,.F.);
#390=EDGE_LOOP('',(#386,#387,#388,#389));
#391=FACE_OUTER_BOUND('',#390,.T.);
#392=DIRECTION('',(0.,1.,0.));
#393=DIRECTION('',(1.,0.,0.));
#394=AXIS2_PLACEMENT_3D('',#302,#392,#393);
#395=PLANE('',#394);
#396=ADVANCED_FACE('',(#391),#395,.T.);
#397=ORIENTED_EDGE('',*,*,#331,.T.);
#398=ORIENTED_EDGE('',*,*,#351,.T.);
#399=ORIENTED_EDGE('',*,*,#347,.F.);
#400=ORIENTED_EDGE('',*,*,#363,.F.);
#401=EDGE_LOOP('',(#397,#398,#399,#400));
#402=FACE_OUTER_BOUND('',#401,.T.);
#403=DIRECTION('',(-1.,0.,0.));
#404=DIRECTION('',(0.,1.,0.));
#405=AXIS2_PLACEMENT_3D('',#303,#403,#404);
#406=PLANE('',#405);
#407=ADVANCED_FACE('',(#402),#406,.T.);
#408=ORIENTED_EDGE('',*,*,#331,.F.);
#409=ORIENTED_EDGE('',*,*,#327,.F.);
#410=ORIENTED_EDGE('',*,*,#323,.F.);
#411=ORIENTED_EDGE('',*,*,#319,.F.);
#412=EDGE_LOOP('',(#408,#409,#410,#411));
#413=FACE_OUTER_BOUND('',#412,.T.);
#414=DIRECTION('',(0.,0.,-1.));
#415=DIRECTION('',(1.,0.,0.));
#416=AXIS2_PLACEMENT_3D('',#300,#414,#415);
#417=PLANE('',#416);
#418=ADVANCED_FACE('',(#413),#417,.T.);
#419=ORIENTED_EDGE('',*,*,#335,.T.);
#420=ORIENTED_EDGE('',*,*,#339,.T.);
#421=ORIENTED_EDGE('',*,*,#343,.T.);
#422=ORIENTED_EDGE('',*,*,#347,.T.);
#423=EDGE_LOOP('',(#419,#420,#421,#422));
#424=FACE_OUTER_BOUND('',#423,.T.);
#425=DIRECTION('',(0.,0.,1.));
#426=DIRECTION('',(1.,0.,0.));
#427=AXIS2_PLACEMENT_3D('',#304,#425,#426);
#428=PLANE('',#427);
#429=ADVANCED_FACE('',(#424),#428,.T.);
#430=CLOSED_SHELL('',(#374,#385,#396,#407,#418,#429));
#431=MANIFOLD_SOLID_BREP('',#430);
#432=CARTESIAN_POINT('',(0.,0.,0.));
#433=DIRECTION('',(0.,0.,1.));
#434=DIRECTION('',(1.,0.,0.));
#435=AXIS2_PLACEMENT_3D('',#432,#433,#434);
#436=( LENGTH_UNIT() NAMED_UNIT(*) SI_UNIT(.MILLI.,.METRE.) );
#437=( NAMED_UNIT(*) PLANE_ANGLE_UNIT() SI_UNIT($,.RADIAN.) );
#438=( NAMED_UNIT(*) SI_UNIT($,.STERADIAN.) SOLID_ANGLE_UNIT() );
#439=UNCERTAINTY_MEASURE_WITH_UNIT(LENGTH_MEASURE(1.E-7),#436,'distance_accuracy_value','confusion accuracy');
#440=( GEOMETRIC_REPRESENTATION_CONTEXT(3) GLOBAL_UNCERTAINTY_ASSIGNED_CONTEXT((#439)) GLOBAL_UNIT_ASSIGNED_CONTEXT((#436,#437,#438)) REPRESENTATION_CONTEXT('Context','3D') );
#441=PRODUCT('frame','Frame','',(#12));
#442=PRODUCT_RELATED_PRODUCT_CATEGORY('part','',(#441));
#443=PRODUCT_DEFINITION_FORMATION_WITH_SPECIFIED_SOURCE(' ',' ',#441,.NOT_KNOWN.);
#444=PRODUCT_DEFINITION(' ','',#443,#13);
#445=PRODUCT_DEFINITION_SHAPE('','',#444);
#446=ADVANCED_BREP_SHAPE_REPRESENTATION('Frame',(#153,#149,#290,#431),#158);
#447=SHAPE_DEFINITION_REPRESENTATION(#445,#446);
#448=NEXT_ASSEMBLY_USAGE_OCCURRENCE('frame','frame','',#17,#444,$);
ENDSEC;
END-ISO-10303-21;
