<svg xmlns="http://www.w3.org/2000/svg" width="1200" height="350" viewBox="0 0 1200 350"><title>NexyFab exact OCCT HLR — rib</title><rect width="1200" height="350" fill="white"/><g transform="translate(0 0)"><text x="12" y="24" font-family="sans-serif" font-size="14">front</text><svg x="12" y="36" width="376" height="300" viewBox="-52.000001 -32.000001 104.000002 64.000002"><path d="M -50 30 L -50 -30 L 50 -30" fill="none" stroke="#64748b" stroke-width="0.3" stroke-dasharray="2 1"/><path d="M 50 30 L 50 -30" fill="none" stroke="#64748b" stroke-width="0.3" stroke-dasharray="2 1"/><path d="M -50 30 L 50 30" fill="none" stroke="#64748b" stroke-width="0.3" stroke-dasharray="2 1"/><path d="M 20 -2.5 L 20 2.5 L 20 -2.5 L -20 -2.5 L 20 -2.5 Z" fill="none" stroke="#64748b" stroke-width="0.3" stroke-dasharray="2 1"/><path d="M -20 2.5 L -20 -2.5" fill="none" stroke="#64748b" stroke-width="0.3" stroke-dasharray="2 1"/><path d="M 20 2.5 L -20 2.5 L -20 -2.5" fill="none" stroke="#64748b" stroke-width="0.3" stroke-dasharray="2 1"/><path d="M -20 2.5 L 20 2.5" fill="none" stroke="#64748b" stroke-width="0.3" stroke-dasharray="2 1"/><path d="M -50 30 L -50 -30" fill="none" stroke="#111827" stroke-width="0.55"/><path d="M 50 30 L -50 30" fill="none" stroke="#111827" stroke-width="0.55"/><path d="M 50 -30 L -50 -30" fill="none" stroke="#111827" stroke-width="0.55"/><path d="M 50 30 L 50 -30" fill="none" stroke="#111827" stroke-width="0.55"/></svg></g><g transform="translate(400 0)"><text x="12" y="24" font-family="sans-serif" font-size="14">top</text><svg x="12" y="36" width="376" height="300" viewBox="-52.000001 -6.000001 104.000002 18.000002"><path d="M -50 4 L 50 4 L 50 -4 L -50 -4 L -50 4 Z" fill="none" stroke="#64748b" stroke-width="0.3" stroke-dasharray="2 1"/><path d="M 20 4 L -20 4 L -20 10 L 20 10 L 20 4 L -20 4" fill="none" stroke="#64748b" stroke-width="0.3" stroke-dasharray="2 1"/><path d="M -50 4 L 50 4 L 50 -4 L -50 -4 L -50 4 Z" fill="none" stroke="#111827" stroke-width="0.55"/><path d="M 20 10 L 20 4" fill="none" stroke="#111827" stroke-width="0.55"/><path d="M -20 4 L -20 10 L 20 10" fill="none" stroke="#111827" stroke-width="0.55"/></svg></g><g transform="translate(800 0)"><text x="12" y="24" font-family="sans-serif" font-size="14">right</text><svg x="12" y="36" width="376" height="300" viewBox="-12.000001 -32.000001 18.000002 64.000002"><path d="M -4 30 L -4 -30 L 4 -30" fill="none" stroke="#64748b" stroke-width="0.3" stroke-dasharray="2 1"/><path d="M -4 -2.5 L -4 2.5 L -4 -2.5 Z" fill="none" stroke="#64748b" stroke-width="0.3" stroke-dasharray="2 1"/><path d="M -4 30 L 4 30 L 4 -30" fill="none" stroke="#64748b" stroke-width="0.3" stroke-dasharray="2 1"/><path d="M -10 2.5 L -4 2.5" fill="none" stroke="#64748b" stroke-width="0.3" stroke-dasharray="2 1"/><path d="M -10 2.5 L -10 -2.5 L -4 -2.5" fill="none" stroke="#64748b" stroke-width="0.3" stroke-dasharray="2 1"/><path d="M -4 30 L -4 -30" fill="none" stroke="#111827" stroke-width="0.55"/><path d="M 4 30 L 4 -30 L -4 -30" fill="none" stroke="#111827" stroke-width="0.55"/><path d="M 4 30 L -4 30" fill="none" stroke="#111827" stroke-width="0.55"/><path d="M -4 2.5 L -10 2.5 L -10 -2.5" fill="none" stroke="#111827" stroke-width="0.55"/><path d="M -4 -2.5 L -10 -2.5" fill="none" stroke="#111827" stroke-width="0.55"/></svg></g></svg>
