<svg xmlns="http://www.w3.org/2000/svg" width="1200" height="350" viewBox="0 0 1200 350"><title>NexyFab exact OCCT HLR — draft</title><rect width="1200" height="350" fill="white"/><g transform="translate(0 0)"><text x="12" y="24" font-family="sans-serif" font-size="14">back</text><svg x="12" y="36" width="376" height="300" viewBox="-52.491139243612004 -32.491139243612 104.982278487222 64.982278487222"><path d="M -50.49114 -30.49114 L -49.50886 -29.50886 L 49.50886 -29.50886 L 50.49114 -30.49114" fill="none" stroke="#64748b" stroke-width="0.3" stroke-dasharray="2 1"/><path d="M -49.50886 29.50886 L -49.50886 -29.50886" fill="none" stroke="#64748b" stroke-width="0.3" stroke-dasharray="2 1"/><path d="M -50.49114 30.49114 L -49.50886 29.50886 L 49.50886 29.50886 L 50.49114 30.49114" fill="none" stroke="#64748b" stroke-width="0.3" stroke-dasharray="2 1"/><path d="M 49.50886 29.50886 L 49.50886 -29.50886" fill="none" stroke="#64748b" stroke-width="0.3" stroke-dasharray="2 1"/><path d="M 50.49114 30.49114 L 50.49114 -30.49114 L -50.49114 -30.49114" fill="none" stroke="#111827" stroke-width="0.55"/><path d="M -50.49114 30.49114 L -50.49114 -30.49114" fill="none" stroke="#111827" stroke-width="0.55"/><path d="M 50.49114 30.49114 L -50.49114 30.49114" fill="none" stroke="#111827" stroke-width="0.55"/></svg></g><g transform="translate(400 0)"><text x="12" y="24" font-family="sans-serif" font-size="14">top</text><svg x="12" y="36" width="376" height="300" viewBox="-52.49113924361 -6.000001000000783 104.982278487222 12.000002000002228"><path d="M -50.49114 4 L 50.49114 4 L 49.50886 -4 L -49.50886 -4 L -50.49114 4 Z" fill="none" stroke="#64748b" stroke-width="0.3" stroke-dasharray="2 1"/><path d="M -50.49114 4 L 50.49114 4 L 49.50886 -4 L -49.50886 -4 L -50.49114 4 Z" fill="none" stroke="#111827" stroke-width="0.55"/></svg></g><g transform="translate(800 0)"><text x="12" y="24" font-family="sans-serif" font-size="14">right</text><svg x="12" y="36" width="376" height="300" viewBox="-6.000001000001672 -32.491139243612 12.000002000002453 64.982278487222"><path d="M -4 30.49114 L -4 -30.49114 L 4 -29.50886" fill="none" stroke="#64748b" stroke-width="0.3" stroke-dasharray="2 1"/><path d="M 4 29.50886 L 4 -29.50886" fill="none" stroke="#64748b" stroke-width="0.3" stroke-dasharray="2 1"/><path d="M -4 30.49114 L 4 29.50886" fill="none" stroke="#64748b" stroke-width="0.3" stroke-dasharray="2 1"/><path d="M -4 30.49114 L -4 -30.49114" fill="none" stroke="#111827" stroke-width="0.55"/><path d="M 4 29.50886 L 4 -29.50886 L -4 -30.49114" fill="none" stroke="#111827" stroke-width="0.55"/><path d="M 4 29.50886 L -4 30.49114" fill="none" stroke="#111827" stroke-width="0.55"/></svg></g></svg>
