ISO-10303-21;
HEADER;
FILE_DESCRIPTION(('Open CASCADE Model'),'2;1');
FILE_NAME('Open CASCADE Shape Model','2026-08-25T07:37:50',('Author'),(
    'Open CASCADE'),'Open CASCADE STEP processor 7.6','Open CASCADE 7.6'
  ,'Unknown');
FILE_SCHEMA((
'AP242_MANAGED_MODEL_BASED_3D_ENGINEERING_MIM_LF. {1 0 10303 442 1 1 4 
}'));
ENDSEC;
DATA;
#1 = APPLICATION_PROTOCOL_DEFINITION('international standard',
  'ap242_managed_model_based_3d_engineering',2013,#2);
#2 = APPLICATION_CONTEXT('Managed model based 3d engineering');
#3 = SHAPE_DEFINITION_REPRESENTATION(#4,#10);
#4 = PRODUCT_DEFINITION_SHAPE('','',#5);
#5 = PRODUCT_DEFINITION('design','',#6,#9);
#6 = PRODUCT_DEFINITION_FORMATION('','',#7);
#7 = PRODUCT('Open CASCADE STEP translator 7.6 11',
  'Open CASCADE STEP translator 7.6 11','',(#8));
#8 = PRODUCT_CONTEXT('',#2,'mechanical');
#9 = PRODUCT_DEFINITION_CONTEXT('part definition',#2,'design');
#10 = ADVANCED_BREP_SHAPE_REPRESENTATION('',(#11,#15),#569);
#11 = AXIS2_PLACEMENT_3D('',#12,#13,#14);
#12 = CARTESIAN_POINT('',(0.,0.,0.));
#13 = DIRECTION('',(0.,0.,1.));
#14 = DIRECTION('',(1.,0.,-0.));
#15 = MANIFOLD_SOLID_BREP('',#16);
#16 = CLOSED_SHELL('',(#17,#163,#324,#436,#485,#535,#562));
#17 = ADVANCED_FACE('',(#18),#32,.T.);
#18 = FACE_BOUND('',#19,.T.);
#19 = EDGE_LOOP('',(#20,#55,#83,#111));
#20 = ORIENTED_EDGE('',*,*,#21,.F.);
#21 = EDGE_CURVE('',#22,#24,#26,.T.);
#22 = VERTEX_POINT('',#23);
#23 = CARTESIAN_POINT('',(-30.,20.,-15.));
#24 = VERTEX_POINT('',#25);
#25 = CARTESIAN_POINT('',(28.,20.,-15.));
#26 = SURFACE_CURVE('',#27,(#31,#43),.PCURVE_S1.);
#27 = LINE('',#28,#29);
#28 = CARTESIAN_POINT('',(-30.,20.,-15.));
#29 = VECTOR('',#30,1.);
#30 = DIRECTION('',(1.,0.,0.));
#31 = PCURVE('',#32,#37);
#32 = PLANE('',#33);
#33 = AXIS2_PLACEMENT_3D('',#34,#35,#36);
#34 = CARTESIAN_POINT('',(-30.,20.,-15.));
#35 = DIRECTION('',(0.,1.,0.));
#36 = DIRECTION('',(1.,0.,0.));
#37 = DEFINITIONAL_REPRESENTATION('',(#38),#42);
#38 = LINE('',#39,#40);
#39 = CARTESIAN_POINT('',(0.,0.));
#40 = VECTOR('',#41,1.);
#41 = DIRECTION('',(1.,0.));
#42 = ( GEOMETRIC_REPRESENTATION_CONTEXT(2) 
PARAMETRIC_REPRESENTATION_CONTEXT() REPRESENTATION_CONTEXT('2D SPACE',''
  ) );
#43 = PCURVE('',#44,#49);
#44 = PLANE('',#45);
#45 = AXIS2_PLACEMENT_3D('',#46,#47,#48);
#46 = CARTESIAN_POINT('',(0.,0.,-15.));
#47 = DIRECTION('',(-0.,-0.,-1.));
#48 = DIRECTION('',(-1.,0.,0.));
#49 = DEFINITIONAL_REPRESENTATION('',(#50),#54);
#50 = LINE('',#51,#52);
#51 = CARTESIAN_POINT('',(30.,20.));
#52 = VECTOR('',#53,1.);
#53 = DIRECTION('',(-1.,0.));
#54 = ( GEOMETRIC_REPRESENTATION_CONTEXT(2) 
PARAMETRIC_REPRESENTATION_CONTEXT() REPRESENTATION_CONTEXT('2D SPACE',''
  ) );
#55 = ORIENTED_EDGE('',*,*,#56,.T.);
#56 = EDGE_CURVE('',#22,#57,#59,.T.);
#57 = VERTEX_POINT('',#58);
#58 = CARTESIAN_POINT('',(-30.,20.,15.));
#59 = SURFACE_CURVE('',#60,(#64,#71),.PCURVE_S1.);
#60 = LINE('',#61,#62);
#61 = CARTESIAN_POINT('',(-30.,20.,-15.));
#62 = VECTOR('',#63,1.);
#63 = DIRECTION('',(0.,0.,1.));
#64 = PCURVE('',#32,#65);
#65 = DEFINITIONAL_REPRESENTATION('',(#66),#70);
#66 = LINE('',#67,#68);
#67 = CARTESIAN_POINT('',(0.,0.));
#68 = VECTOR('',#69,1.);
#69 = DIRECTION('',(0.,-1.));
#70 = ( GEOMETRIC_REPRESENTATION_CONTEXT(2) 
PARAMETRIC_REPRESENTATION_CONTEXT() REPRESENTATION_CONTEXT('2D SPACE',''
  ) );
#71 = PCURVE('',#72,#77);
#72 = PLANE('',#73);
#73 = AXIS2_PLACEMENT_3D('',#74,#75,#76);
#74 = CARTESIAN_POINT('',(-30.,-20.,-15.));
#75 = DIRECTION('',(-1.,0.,0.));
#76 = DIRECTION('',(0.,1.,0.));
#77 = DEFINITIONAL_REPRESENTATION('',(#78),#82);
#78 = LINE('',#79,#80);
#79 = CARTESIAN_POINT('',(40.,0.));
#80 = VECTOR('',#81,1.);
#81 = DIRECTION('',(0.,-1.));
#82 = ( GEOMETRIC_REPRESENTATION_CONTEXT(2) 
PARAMETRIC_REPRESENTATION_CONTEXT() REPRESENTATION_CONTEXT('2D SPACE',''
  ) );
#83 = ORIENTED_EDGE('',*,*,#84,.T.);
#84 = EDGE_CURVE('',#57,#85,#87,.T.);
#85 = VERTEX_POINT('',#86);
#86 = CARTESIAN_POINT('',(24.,20.,15.));
#87 = SURFACE_CURVE('',#88,(#92,#99),.PCURVE_S1.);
#88 = LINE('',#89,#90);
#89 = CARTESIAN_POINT('',(-30.,20.,15.));
#90 = VECTOR('',#91,1.);
#91 = DIRECTION('',(1.,0.,0.));
#92 = PCURVE('',#32,#93);
#93 = DEFINITIONAL_REPRESENTATION('',(#94),#98);
#94 = LINE('',#95,#96);
#95 = CARTESIAN_POINT('',(0.,-30.));
#96 = VECTOR('',#97,1.);
#97 = DIRECTION('',(1.,0.));
#98 = ( GEOMETRIC_REPRESENTATION_CONTEXT(2) 
PARAMETRIC_REPRESENTATION_CONTEXT() REPRESENTATION_CONTEXT('2D SPACE',''
  ) );
#99 = PCURVE('',#100,#105);
#100 = PLANE('',#101);
#101 = AXIS2_PLACEMENT_3D('',#102,#103,#104);
#102 = CARTESIAN_POINT('',(0.,0.,15.));
#103 = DIRECTION('',(-0.,-0.,-1.));
#104 = DIRECTION('',(-1.,0.,0.));
#105 = DEFINITIONAL_REPRESENTATION('',(#106),#110);
#106 = LINE('',#107,#108);
#107 = CARTESIAN_POINT('',(30.,20.));
#108 = VECTOR('',#109,1.);
#109 = DIRECTION('',(-1.,0.));
#110 = ( GEOMETRIC_REPRESENTATION_CONTEXT(2) 
PARAMETRIC_REPRESENTATION_CONTEXT() REPRESENTATION_CONTEXT('2D SPACE',''
  ) );
#111 = ORIENTED_EDGE('',*,*,#112,.F.);
#112 = EDGE_CURVE('',#24,#85,#113,.T.);
#113 = SURFACE_CURVE('',#114,(#123,#131),.PCURVE_S1.);
#114 = B_SPLINE_CURVE_WITH_KNOTS('',3,(#115,#116,#117,#118,#119,#120,
    #121,#122),.UNSPECIFIED.,.F.,.F.,(4,2,2,4),(-1.833009770002,
    2.107428842931E-14,30.,31.833009770002),.UNSPECIFIED.);
#115 = CARTESIAN_POINT('',(28.104743415429,20.,-16.83300977));
#116 = CARTESIAN_POINT('',(28.069828943619,20.,-16.22200651333));
#117 = CARTESIAN_POINT('',(28.03491447181,20.,-15.61100325666));
#118 = CARTESIAN_POINT('',(27.428571428571,20.,-5.));
#119 = CARTESIAN_POINT('',(24.571428571429,20.,5.));
#120 = CARTESIAN_POINT('',(23.96508552819,20.,15.611003256667));
#121 = CARTESIAN_POINT('',(23.930171056381,20.,16.222006513335));
#122 = CARTESIAN_POINT('',(23.895256584571,20.,16.833009770002));
#123 = PCURVE('',#32,#124);
#124 = DEFINITIONAL_REPRESENTATION('',(#125),#130);
#125 = B_SPLINE_CURVE_WITH_KNOTS('',3,(#126,#127,#128,#129),
  .UNSPECIFIED.,.F.,.F.,(4,4),(2.107428842931E-14,30.),
  .PIECEWISE_BEZIER_KNOTS.);
#126 = CARTESIAN_POINT('',(58.,-3.552713678801E-15));
#127 = CARTESIAN_POINT('',(57.428571428571,-10.));
#128 = CARTESIAN_POINT('',(54.571428571429,-20.));
#129 = CARTESIAN_POINT('',(54.,-30.));
#130 = ( GEOMETRIC_REPRESENTATION_CONTEXT(2) 
PARAMETRIC_REPRESENTATION_CONTEXT() REPRESENTATION_CONTEXT('2D SPACE',''
  ) );
#131 = PCURVE('',#132,#157);
#132 = ( BOUNDED_SURFACE() B_SPLINE_SURFACE(2,3,(
    (#133,#134,#135,#136,#137,#138,#139,#140)
    ,(#141,#142,#143,#144,#145,#146,#147,#148)
    ,(#149,#150,#151,#152,#153,#154,#155,#156
)),.UNSPECIFIED.,.F.,.F.,.F.) B_SPLINE_SURFACE_WITH_KNOTS((3,3),(4,2,2,4
    ),(0.,30.),(-1.833009770002,2.107428842931E-14,30.,31.833009770002),
.UNSPECIFIED.) GEOMETRIC_REPRESENTATION_ITEM() RATIONAL_B_SPLINE_SURFACE
((
    (1.,1.,1.,1.,1.,1.,1.,1.)
    ,(0.707106781187,0.707106781187,0.707106781187,0.707106781187
      ,0.707106781187,0.707106781187,0.707106781187,0.707106781187)
,(1.,1.,1.,1.,1.,1.,1.,1.))) REPRESENTATION_ITEM('') SURFACE() );
#133 = CARTESIAN_POINT('',(28.104743415429,20.,-16.83300977));
#134 = CARTESIAN_POINT('',(28.069828943619,20.,-16.22200651333));
#135 = CARTESIAN_POINT('',(28.03491447181,20.,-15.61100325666));
#136 = CARTESIAN_POINT('',(27.428571428571,20.,-5.));
#137 = CARTESIAN_POINT('',(24.571428571429,20.,5.));
#138 = CARTESIAN_POINT('',(23.96508552819,20.,15.611003256667));
#139 = CARTESIAN_POINT('',(23.930171056381,20.,16.222006513335));
#140 = CARTESIAN_POINT('',(23.895256584571,20.,16.833009770002));
#141 = CARTESIAN_POINT('',(30.,20.,-16.836));
#142 = CARTESIAN_POINT('',(30.,20.,-16.22300325666));
#143 = CARTESIAN_POINT('',(30.,20.,-15.61100325666));
#144 = CARTESIAN_POINT('',(30.,20.,-5.));
#145 = CARTESIAN_POINT('',(30.,20.,5.));
#146 = CARTESIAN_POINT('',(30.,20.,15.611003256667));
#147 = CARTESIAN_POINT('',(30.,20.,16.223003256667));
#148 = CARTESIAN_POINT('',(30.,20.,16.836));
#149 = CARTESIAN_POINT('',(30.,18.104743415429,-16.83300977));
#150 = CARTESIAN_POINT('',(30.,18.069828943619,-16.22200651333));
#151 = CARTESIAN_POINT('',(30.,18.03491447181,-15.61100325666));
#152 = CARTESIAN_POINT('',(30.,17.428571428571,-5.));
#153 = CARTESIAN_POINT('',(30.,14.571428571429,5.));
#154 = CARTESIAN_POINT('',(30.,13.96508552819,15.611003256667));
#155 = CARTESIAN_POINT('',(30.,13.930171056381,16.222006513335));
#156 = CARTESIAN_POINT('',(30.,13.895256584571,16.833009770002));
#157 = DEFINITIONAL_REPRESENTATION('',(#158),#162);
#158 = LINE('',#159,#160);
#159 = CARTESIAN_POINT('',(0.,0.));
#160 = VECTOR('',#161,1.);
#161 = DIRECTION('',(0.,1.));
#162 = ( GEOMETRIC_REPRESENTATION_CONTEXT(2) 
PARAMETRIC_REPRESENTATION_CONTEXT() REPRESENTATION_CONTEXT('2D SPACE',''
  ) );
#163 = ADVANCED_FACE('',(#164),#44,.T.);
#164 = FACE_BOUND('',#165,.T.);
#165 = EDGE_LOOP('',(#166,#167,#247,#275,#303));
#166 = ORIENTED_EDGE('',*,*,#21,.T.);
#167 = ORIENTED_EDGE('',*,*,#168,.T.);
#168 = EDGE_CURVE('',#24,#169,#171,.T.);
#169 = VERTEX_POINT('',#170);
#170 = CARTESIAN_POINT('',(30.,18.,-15.));
#171 = SURFACE_CURVE('',#172,(#195,#221),.PCURVE_S1.);
#172 = B_SPLINE_CURVE_WITH_KNOTS('',6,(#173,#174,#175,#176,#177,#178,
    #179,#180,#181,#182,#183,#184,#185,#186,#187,#188,#189,#190,#191,
    #192,#193,#194),.UNSPECIFIED.,.F.,.F.,(7,5,5,5,7),(0.,0.249892080314
    ,0.499999999506,0.749107807775,1.),.UNSPECIFIED.);
#173 = CARTESIAN_POINT('',(28.,20.,-15.));
#174 = CARTESIAN_POINT('',(28.117922657707,20.,-15.));
#175 = CARTESIAN_POINT('',(28.239271218887,19.991656285787,-15.));
#176 = CARTESIAN_POINT('',(28.363125122835,19.974061671236,-15.));
#177 = CARTESIAN_POINT('',(28.488263147852,19.946430147843,-15.));
#178 = CARTESIAN_POINT('',(28.61315953882,19.908283009816,-15.));
#179 = CARTESIAN_POINT('',(28.859325563825,19.810828125328,-15.));
#180 = CARTESIAN_POINT('',(28.980592304572,19.751501534776,-15.));
#181 = CARTESIAN_POINT('',(29.098362121939,19.681551540528,-15.));
#182 = CARTESIAN_POINT('',(29.210898675517,19.601358150386,-15.));
#183 = CARTESIAN_POINT('',(29.316598777787,19.511828346959,-15.));
#184 = CARTESIAN_POINT('',(29.511438013008,19.316989111738,-15.));
#185 = CARTESIAN_POINT('',(29.600642007983,19.211743872472,-15.));
#186 = CARTESIAN_POINT('',(29.68058907878,19.099711823328,-15.));
#187 = CARTESIAN_POINT('',(29.750381708073,18.982475500625,-15.));
#188 = CARTESIAN_POINT('',(29.809640274563,18.861749569637,-15.));
#189 = CARTESIAN_POINT('',(29.907517971857,18.615658791106,-15.));
#190 = CARTESIAN_POINT('',(29.945986821753,18.490266574818,-15.));
#191 = CARTESIAN_POINT('',(29.973849989554,18.364612306384,-15.));
#192 = CARTESIAN_POINT('',(29.991589360697,18.240242593361,-15.));
#193 = CARTESIAN_POINT('',(30.,18.118394603881,-15.));
#194 = CARTESIAN_POINT('',(30.,18.,-15.));
#195 = PCURVE('',#44,#196);
#196 = DEFINITIONAL_REPRESENTATION('',(#197),#220);
#197 = B_SPLINE_CURVE_WITH_KNOTS('',6,(#198,#199,#200,#201,#202,#203,
    #204,#205,#206,#207,#208,#209,#210,#211,#212,#213,#214,#215,#216,
    #217,#218,#219),.UNSPECIFIED.,.F.,.F.,(7,5,5,5,7),(0.,0.249892080314
    ,0.499999999506,0.749107807775,1.),.UNSPECIFIED.);
#198 = CARTESIAN_POINT('',(-28.,20.));
#199 = CARTESIAN_POINT('',(-28.1179226577,20.));
#200 = CARTESIAN_POINT('',(-28.23927121888,19.991656285787));
#201 = CARTESIAN_POINT('',(-28.36312512283,19.974061671236));
#202 = CARTESIAN_POINT('',(-28.48826314785,19.946430147843));
#203 = CARTESIAN_POINT('',(-28.61315953882,19.908283009816));
#204 = CARTESIAN_POINT('',(-28.85932556382,19.810828125328));
#205 = CARTESIAN_POINT('',(-28.98059230457,19.751501534776));
#206 = CARTESIAN_POINT('',(-29.09836212193,19.681551540528));
#207 = CARTESIAN_POINT('',(-29.21089867551,19.601358150386));
#208 = CARTESIAN_POINT('',(-29.31659877778,19.511828346959));
#209 = CARTESIAN_POINT('',(-29.511438013,19.316989111738));
#210 = CARTESIAN_POINT('',(-29.60064200798,19.211743872472));
#211 = CARTESIAN_POINT('',(-29.68058907878,19.099711823328));
#212 = CARTESIAN_POINT('',(-29.75038170807,18.982475500625));
#213 = CARTESIAN_POINT('',(-29.80964027456,18.861749569637));
#214 = CARTESIAN_POINT('',(-29.90751797185,18.615658791106));
#215 = CARTESIAN_POINT('',(-29.94598682175,18.490266574818));
#216 = CARTESIAN_POINT('',(-29.97384998955,18.364612306384));
#217 = CARTESIAN_POINT('',(-29.99158936069,18.240242593361));
#218 = CARTESIAN_POINT('',(-30.,18.118394603881));
#219 = CARTESIAN_POINT('',(-30.,18.));
#220 = ( GEOMETRIC_REPRESENTATION_CONTEXT(2) 
PARAMETRIC_REPRESENTATION_CONTEXT() REPRESENTATION_CONTEXT('2D SPACE',''
  ) );
#221 = PCURVE('',#132,#222);
#222 = DEFINITIONAL_REPRESENTATION('',(#223),#246);
#223 = B_SPLINE_CURVE_WITH_KNOTS('',6,(#224,#225,#226,#227,#228,#229,
    #230,#231,#232,#233,#234,#235,#236,#237,#238,#239,#240,#241,#242,
    #243,#244,#245),.UNSPECIFIED.,.F.,.F.,(7,5,5,5,7),(0.,0.249892080314
    ,0.499999999506,0.749107807775,1.),.UNSPECIFIED.);
#224 = CARTESIAN_POINT('',(0.,1.756927936469E-14));
#225 = CARTESIAN_POINT('',(1.250758663807,1.770814147137E-14));
#226 = CARTESIAN_POINT('',(2.501198137107,2.23001144934E-14));
#227 = CARTESIAN_POINT('',(3.751317658428,2.113065145378E-14));
#228 = CARTESIAN_POINT('',(5.00113310802,1.3872572116E-14));
#229 = CARTESIAN_POINT('',(6.250681069677,2.080575310342E-14));
#230 = CARTESIAN_POINT('',(8.75039800252,2.10551307978E-14));
#231 = CARTESIAN_POINT('',(10.000573775665,1.279635709606E-14));
#232 = CARTESIAN_POINT('',(11.25055848987,2.507767311124E-14));
#233 = CARTESIAN_POINT('',(12.500412436042,1.732992147252E-14));
#234 = CARTESIAN_POINT('',(13.750208544671,1.950620003624E-14));
#235 = CARTESIAN_POINT('',(16.244793892323,1.949744446183E-14));
#236 = CARTESIAN_POINT('',(17.489592353532,1.677547242888E-14));
#237 = CARTESIAN_POINT('',(18.734448014713,2.533256471357E-14));
#238 = CARTESIAN_POINT('',(19.979432857777,1.325404018326E-14));
#239 = CARTESIAN_POINT('',(21.224606507841,2.106353975735E-14));
#240 = CARTESIAN_POINT('',(23.724314369348,2.073047661361E-14));
#241 = CARTESIAN_POINT('',(24.978858926205,1.346665548247E-14));
#242 = CARTESIAN_POINT('',(26.23367268956,2.264377585353E-14));
#243 = CARTESIAN_POINT('',(27.488792875534,2.211074490448E-14));
#244 = CARTESIAN_POINT('',(28.744235591102,1.818054200619E-14));
#245 = CARTESIAN_POINT('',(30.,1.804112415016E-14));
#246 = ( GEOMETRIC_REPRESENTATION_CONTEXT(2) 
PARAMETRIC_REPRESENTATION_CONTEXT() REPRESENTATION_CONTEXT('2D SPACE',''
  ) );
#247 = ORIENTED_EDGE('',*,*,#248,.T.);
#248 = EDGE_CURVE('',#169,#249,#251,.T.);
#249 = VERTEX_POINT('',#250);
#250 = CARTESIAN_POINT('',(30.,-20.,-15.));
#251 = SURFACE_CURVE('',#252,(#256,#263),.PCURVE_S1.);
#252 = LINE('',#253,#254);
#253 = CARTESIAN_POINT('',(30.,20.,-15.));
#254 = VECTOR('',#255,1.);
#255 = DIRECTION('',(0.,-1.,0.));
#256 = PCURVE('',#44,#257);
#257 = DEFINITIONAL_REPRESENTATION('',(#258),#262);
#258 = LINE('',#259,#260);
#259 = CARTESIAN_POINT('',(-30.,20.));
#260 = VECTOR('',#261,1.);
#261 = DIRECTION('',(0.,-1.));
#262 = ( GEOMETRIC_REPRESENTATION_CONTEXT(2) 
PARAMETRIC_REPRESENTATION_CONTEXT() REPRESENTATION_CONTEXT('2D SPACE',''
  ) );
#263 = PCURVE('',#264,#269);
#264 = PLANE('',#265);
#265 = AXIS2_PLACEMENT_3D('',#266,#267,#268);
#266 = CARTESIAN_POINT('',(30.,20.,-15.));
#267 = DIRECTION('',(1.,0.,-0.));
#268 = DIRECTION('',(0.,-1.,0.));
#269 = DEFINITIONAL_REPRESENTATION('',(#270),#274);
#270 = LINE('',#271,#272);
#271 = CARTESIAN_POINT('',(0.,0.));
#272 = VECTOR('',#273,1.);
#273 = DIRECTION('',(1.,0.));
#274 = ( GEOMETRIC_REPRESENTATION_CONTEXT(2) 
PARAMETRIC_REPRESENTATION_CONTEXT() REPRESENTATION_CONTEXT('2D SPACE',''
  ) );
#275 = ORIENTED_EDGE('',*,*,#276,.T.);
#276 = EDGE_CURVE('',#249,#277,#279,.T.);
#277 = VERTEX_POINT('',#278);
#278 = CARTESIAN_POINT('',(-30.,-20.,-15.));
#279 = SURFACE_CURVE('',#280,(#284,#291),.PCURVE_S1.);
#280 = LINE('',#281,#282);
#281 = CARTESIAN_POINT('',(30.,-20.,-15.));
#282 = VECTOR('',#283,1.);
#283 = DIRECTION('',(-1.,0.,0.));
#284 = PCURVE('',#44,#285);
#285 = DEFINITIONAL_REPRESENTATION('',(#286),#290);
#286 = LINE('',#287,#288);
#287 = CARTESIAN_POINT('',(-30.,-20.));
#288 = VECTOR('',#289,1.);
#289 = DIRECTION('',(1.,0.));
#290 = ( GEOMETRIC_REPRESENTATION_CONTEXT(2) 
PARAMETRIC_REPRESENTATION_CONTEXT() REPRESENTATION_CONTEXT('2D SPACE',''
  ) );
#291 = PCURVE('',#292,#297);
#292 = PLANE('',#293);
#293 = AXIS2_PLACEMENT_3D('',#294,#295,#296);
#294 = CARTESIAN_POINT('',(30.,-20.,-15.));
#295 = DIRECTION('',(0.,-1.,0.));
#296 = DIRECTION('',(-1.,0.,0.));
#297 = DEFINITIONAL_REPRESENTATION('',(#298),#302);
#298 = LINE('',#299,#300);
#299 = CARTESIAN_POINT('',(0.,-0.));
#300 = VECTOR('',#301,1.);
#301 = DIRECTION('',(1.,0.));
#302 = ( GEOMETRIC_REPRESENTATION_CONTEXT(2) 
PARAMETRIC_REPRESENTATION_CONTEXT() REPRESENTATION_CONTEXT('2D SPACE',''
  ) );
#303 = ORIENTED_EDGE('',*,*,#304,.T.);
#304 = EDGE_CURVE('',#277,#22,#305,.T.);
#305 = SURFACE_CURVE('',#306,(#310,#317),.PCURVE_S1.);
#306 = LINE('',#307,#308);
#307 = CARTESIAN_POINT('',(-30.,-20.,-15.));
#308 = VECTOR('',#309,1.);
#309 = DIRECTION('',(0.,1.,0.));
#310 = PCURVE('',#44,#311);
#311 = DEFINITIONAL_REPRESENTATION('',(#312),#316);
#312 = LINE('',#313,#314);
#313 = CARTESIAN_POINT('',(30.,-20.));
#314 = VECTOR('',#315,1.);
#315 = DIRECTION('',(0.,1.));
#316 = ( GEOMETRIC_REPRESENTATION_CONTEXT(2) 
PARAMETRIC_REPRESENTATION_CONTEXT() REPRESENTATION_CONTEXT('2D SPACE',''
  ) );
#317 = PCURVE('',#72,#318);
#318 = DEFINITIONAL_REPRESENTATION('',(#319),#323);
#319 = LINE('',#320,#321);
#320 = CARTESIAN_POINT('',(0.,0.));
#321 = VECTOR('',#322,1.);
#322 = DIRECTION('',(1.,0.));
#323 = ( GEOMETRIC_REPRESENTATION_CONTEXT(2) 
PARAMETRIC_REPRESENTATION_CONTEXT() REPRESENTATION_CONTEXT('2D SPACE',''
  ) );
#324 = ADVANCED_FACE('',(#325),#132,.F.);
#325 = FACE_BOUND('',#326,.F.);
#326 = EDGE_LOOP('',(#327,#328,#357,#435));
#327 = ORIENTED_EDGE('',*,*,#168,.T.);
#328 = ORIENTED_EDGE('',*,*,#329,.T.);
#329 = EDGE_CURVE('',#169,#330,#332,.T.);
#330 = VERTEX_POINT('',#331);
#331 = CARTESIAN_POINT('',(30.,14.,15.));
#332 = SURFACE_CURVE('',#333,(#342,#349),.PCURVE_S1.);
#333 = B_SPLINE_CURVE_WITH_KNOTS('',3,(#334,#335,#336,#337,#338,#339,
    #340,#341),.UNSPECIFIED.,.F.,.F.,(4,2,2,4),(-1.833009770002,
    2.107428842931E-14,30.,31.833009770002),.UNSPECIFIED.);
#334 = CARTESIAN_POINT('',(30.,18.104743415429,-16.83300977));
#335 = CARTESIAN_POINT('',(30.,18.069828943619,-16.22200651333));
#336 = CARTESIAN_POINT('',(30.,18.03491447181,-15.61100325666));
#337 = CARTESIAN_POINT('',(30.,17.428571428571,-5.));
#338 = CARTESIAN_POINT('',(30.,14.571428571429,5.));
#339 = CARTESIAN_POINT('',(30.,13.96508552819,15.611003256667));
#340 = CARTESIAN_POINT('',(30.,13.930171056381,16.222006513335));
#341 = CARTESIAN_POINT('',(30.,13.895256584571,16.833009770002));
#342 = PCURVE('',#132,#343);
#343 = DEFINITIONAL_REPRESENTATION('',(#344),#348);
#344 = LINE('',#345,#346);
#345 = CARTESIAN_POINT('',(30.,0.));
#346 = VECTOR('',#347,1.);
#347 = DIRECTION('',(0.,1.));
#348 = ( GEOMETRIC_REPRESENTATION_CONTEXT(2) 
PARAMETRIC_REPRESENTATION_CONTEXT() REPRESENTATION_CONTEXT('2D SPACE',''
  ) );
#349 = PCURVE('',#264,#350);
#350 = DEFINITIONAL_REPRESENTATION('',(#351),#356);
#351 = B_SPLINE_CURVE_WITH_KNOTS('',3,(#352,#353,#354,#355),
  .UNSPECIFIED.,.F.,.F.,(4,4),(2.107428842931E-14,30.),
  .PIECEWISE_BEZIER_KNOTS.);
#352 = CARTESIAN_POINT('',(2.,-3.552713678801E-15));
#353 = CARTESIAN_POINT('',(2.571428571429,-10.));
#354 = CARTESIAN_POINT('',(5.428571428571,-20.));
#355 = CARTESIAN_POINT('',(6.,-30.));
#356 = ( GEOMETRIC_REPRESENTATION_CONTEXT(2) 
PARAMETRIC_REPRESENTATION_CONTEXT() REPRESENTATION_CONTEXT('2D SPACE',''
  ) );
#357 = ORIENTED_EDGE('',*,*,#358,.F.);
#358 = EDGE_CURVE('',#85,#330,#359,.T.);
#359 = SURFACE_CURVE('',#360,(#383,#409),.PCURVE_S1.);
#360 = B_SPLINE_CURVE_WITH_KNOTS('',6,(#361,#362,#363,#364,#365,#366,
    #367,#368,#369,#370,#371,#372,#373,#374,#375,#376,#377,#378,#379,
    #380,#381,#382),.UNSPECIFIED.,.F.,.F.,(7,5,5,5,7),(0.,0.249105827102
    ,0.5,0.750894172898,1.),.UNSPECIFIED.);
#361 = CARTESIAN_POINT('',(24.,20.,15.));
#362 = CARTESIAN_POINT('',(24.355352470721,20.,15.));
#363 = CARTESIAN_POINT('',(24.720399484632,19.974744398031,15.));
#364 = CARTESIAN_POINT('',(25.092274391927,19.921653064707,15.));
#365 = CARTESIAN_POINT('',(25.467279417957,19.83857330897,15.));
#366 = CARTESIAN_POINT('',(25.84094554195,19.724268287023,15.));
#367 = CARTESIAN_POINT('',(26.578830158497,19.432146496173,15.));
#368 = CARTESIAN_POINT('',(26.942977707183,19.253872405767,15.));
#369 = CARTESIAN_POINT('',(27.296192096049,19.043896205172,15.));
#370 = CARTESIAN_POINT('',(27.633451802039,18.80343498579,15.));
#371 = CARTESIAN_POINT('',(27.950148951652,18.535132422587,15.));
#372 = CARTESIAN_POINT('',(28.535132422586,17.950148951652,15.));
#373 = CARTESIAN_POINT('',(28.803434985789,17.63345180204,15.));
#374 = CARTESIAN_POINT('',(29.043896205172,17.296192096048,15.));
#375 = CARTESIAN_POINT('',(29.253872405766,16.942977707183,15.));
#376 = CARTESIAN_POINT('',(29.432146496173,16.578830158497,15.));
#377 = CARTESIAN_POINT('',(29.724268287023,15.840945541949,15.));
#378 = CARTESIAN_POINT('',(29.83857330897,15.46727941796,15.));
#379 = CARTESIAN_POINT('',(29.921653064708,15.092274391924,15.));
#380 = CARTESIAN_POINT('',(29.974744398031,14.720399484634,15.));
#381 = CARTESIAN_POINT('',(30.,14.355352470721,15.));
#382 = CARTESIAN_POINT('',(30.,14.,15.));
#383 = PCURVE('',#132,#384);
#384 = DEFINITIONAL_REPRESENTATION('',(#385),#408);
#385 = B_SPLINE_CURVE_WITH_KNOTS('',6,(#386,#387,#388,#389,#390,#391,
    #392,#393,#394,#395,#396,#397,#398,#399,#400,#401,#402,#403,#404,
    #405,#406,#407),.UNSPECIFIED.,.F.,.F.,(7,5,5,5,7),(0.,0.249105827102
    ,0.5,0.750894172898,1.),.UNSPECIFIED.);
#386 = CARTESIAN_POINT('',(0.,30.));
#387 = CARTESIAN_POINT('',(1.256360708792,30.));
#388 = CARTESIAN_POINT('',(2.510011619722,30.));
#389 = CARTESIAN_POINT('',(3.760973967975,30.));
#390 = CARTESIAN_POINT('',(5.00941268528,30.));
#391 = CARTESIAN_POINT('',(6.255646415707,30.));
#392 = CARTESIAN_POINT('',(8.75328687392,30.));
#393 = CARTESIAN_POINT('',(10.004723641362,30.));
#394 = CARTESIAN_POINT('',(11.254590468649,30.));
#395 = CARTESIAN_POINT('',(12.503390653865,30.));
#396 = CARTESIAN_POINT('',(13.751713437357,30.));
#397 = CARTESIAN_POINT('',(16.248286562643,30.));
#398 = CARTESIAN_POINT('',(17.496609346133,30.));
#399 = CARTESIAN_POINT('',(18.745409531353,30.));
#400 = CARTESIAN_POINT('',(19.995276358635,30.));
#401 = CARTESIAN_POINT('',(21.24671312608,30.));
#402 = CARTESIAN_POINT('',(23.744353584294,30.));
#403 = CARTESIAN_POINT('',(24.990587314712,30.));
#404 = CARTESIAN_POINT('',(26.239026032035,30.));
#405 = CARTESIAN_POINT('',(27.489988380271,30.));
#406 = CARTESIAN_POINT('',(28.74363929121,30.));
#407 = CARTESIAN_POINT('',(30.,30.));
#408 = ( GEOMETRIC_REPRESENTATION_CONTEXT(2) 
PARAMETRIC_REPRESENTATION_CONTEXT() REPRESENTATION_CONTEXT('2D SPACE',''
  ) );
#409 = PCURVE('',#100,#410);
#410 = DEFINITIONAL_REPRESENTATION('',(#411),#434);
#411 = B_SPLINE_CURVE_WITH_KNOTS('',6,(#412,#413,#414,#415,#416,#417,
    #418,#419,#420,#421,#422,#423,#424,#425,#426,#427,#428,#429,#430,
    #431,#432,#433),.UNSPECIFIED.,.F.,.F.,(7,5,5,5,7),(0.,0.249105827102
    ,0.5,0.750894172898,1.),.UNSPECIFIED.);
#412 = CARTESIAN_POINT('',(-24.,20.));
#413 = CARTESIAN_POINT('',(-24.35535247072,20.));
#414 = CARTESIAN_POINT('',(-24.72039948463,19.974744398031));
#415 = CARTESIAN_POINT('',(-25.09227439192,19.921653064707));
#416 = CARTESIAN_POINT('',(-25.46727941795,19.83857330897));
#417 = CARTESIAN_POINT('',(-25.84094554195,19.724268287023));
#418 = CARTESIAN_POINT('',(-26.57883015849,19.432146496173));
#419 = CARTESIAN_POINT('',(-26.94297770718,19.253872405767));
#420 = CARTESIAN_POINT('',(-27.29619209604,19.043896205172));
#421 = CARTESIAN_POINT('',(-27.63345180203,18.80343498579));
#422 = CARTESIAN_POINT('',(-27.95014895165,18.535132422587));
#423 = CARTESIAN_POINT('',(-28.53513242258,17.950148951652));
#424 = CARTESIAN_POINT('',(-28.80343498578,17.63345180204));
#425 = CARTESIAN_POINT('',(-29.04389620517,17.296192096048));
#426 = CARTESIAN_POINT('',(-29.25387240576,16.942977707183));
#427 = CARTESIAN_POINT('',(-29.43214649617,16.578830158497));
#428 = CARTESIAN_POINT('',(-29.72426828702,15.840945541949));
#429 = CARTESIAN_POINT('',(-29.83857330897,15.46727941796));
#430 = CARTESIAN_POINT('',(-29.9216530647,15.092274391924));
#431 = CARTESIAN_POINT('',(-29.97474439803,14.720399484634));
#432 = CARTESIAN_POINT('',(-30.,14.355352470721));
#433 = CARTESIAN_POINT('',(-30.,14.));
#434 = ( GEOMETRIC_REPRESENTATION_CONTEXT(2) 
PARAMETRIC_REPRESENTATION_CONTEXT() REPRESENTATION_CONTEXT('2D SPACE',''
  ) );
#435 = ORIENTED_EDGE('',*,*,#112,.F.);
#436 = ADVANCED_FACE('',(#437),#72,.T.);
#437 = FACE_BOUND('',#438,.T.);
#438 = EDGE_LOOP('',(#439,#462,#483,#484));
#439 = ORIENTED_EDGE('',*,*,#440,.T.);
#440 = EDGE_CURVE('',#277,#441,#443,.T.);
#441 = VERTEX_POINT('',#442);
#442 = CARTESIAN_POINT('',(-30.,-20.,15.));
#443 = SURFACE_CURVE('',#444,(#448,#455),.PCURVE_S1.);
#444 = LINE('',#445,#446);
#445 = CARTESIAN_POINT('',(-30.,-20.,-15.));
#446 = VECTOR('',#447,1.);
#447 = DIRECTION('',(0.,0.,1.));
#448 = PCURVE('',#72,#449);
#449 = DEFINITIONAL_REPRESENTATION('',(#450),#454);
#450 = LINE('',#451,#452);
#451 = CARTESIAN_POINT('',(0.,0.));
#452 = VECTOR('',#453,1.);
#453 = DIRECTION('',(0.,-1.));
#454 = ( GEOMETRIC_REPRESENTATION_CONTEXT(2) 
PARAMETRIC_REPRESENTATION_CONTEXT() REPRESENTATION_CONTEXT('2D SPACE',''
  ) );
#455 = PCURVE('',#292,#456);
#456 = DEFINITIONAL_REPRESENTATION('',(#457),#461);
#457 = LINE('',#458,#459);
#458 = CARTESIAN_POINT('',(60.,0.));
#459 = VECTOR('',#460,1.);
#460 = DIRECTION('',(0.,-1.));
#461 = ( GEOMETRIC_REPRESENTATION_CONTEXT(2) 
PARAMETRIC_REPRESENTATION_CONTEXT() REPRESENTATION_CONTEXT('2D SPACE',''
  ) );
#462 = ORIENTED_EDGE('',*,*,#463,.T.);
#463 = EDGE_CURVE('',#441,#57,#464,.T.);
#464 = SURFACE_CURVE('',#465,(#469,#476),.PCURVE_S1.);
#465 = LINE('',#466,#467);
#466 = CARTESIAN_POINT('',(-30.,-20.,15.));
#467 = VECTOR('',#468,1.);
#468 = DIRECTION('',(0.,1.,0.));
#469 = PCURVE('',#72,#470);
#470 = DEFINITIONAL_REPRESENTATION('',(#471),#475);
#471 = LINE('',#472,#473);
#472 = CARTESIAN_POINT('',(0.,-30.));
#473 = VECTOR('',#474,1.);
#474 = DIRECTION('',(1.,0.));
#475 = ( GEOMETRIC_REPRESENTATION_CONTEXT(2) 
PARAMETRIC_REPRESENTATION_CONTEXT() REPRESENTATION_CONTEXT('2D SPACE',''
  ) );
#476 = PCURVE('',#100,#477);
#477 = DEFINITIONAL_REPRESENTATION('',(#478),#482);
#478 = LINE('',#479,#480);
#479 = CARTESIAN_POINT('',(30.,-20.));
#480 = VECTOR('',#481,1.);
#481 = DIRECTION('',(0.,1.));
#482 = ( GEOMETRIC_REPRESENTATION_CONTEXT(2) 
PARAMETRIC_REPRESENTATION_CONTEXT() REPRESENTATION_CONTEXT('2D SPACE',''
  ) );
#483 = ORIENTED_EDGE('',*,*,#56,.F.);
#484 = ORIENTED_EDGE('',*,*,#304,.F.);
#485 = ADVANCED_FACE('',(#486),#100,.F.);
#486 = FACE_BOUND('',#487,.F.);
#487 = EDGE_LOOP('',(#488,#489,#490,#513,#534));
#488 = ORIENTED_EDGE('',*,*,#84,.T.);
#489 = ORIENTED_EDGE('',*,*,#358,.T.);
#490 = ORIENTED_EDGE('',*,*,#491,.T.);
#491 = EDGE_CURVE('',#330,#492,#494,.T.);
#492 = VERTEX_POINT('',#493);
#493 = CARTESIAN_POINT('',(30.,-20.,15.));
#494 = SURFACE_CURVE('',#495,(#499,#506),.PCURVE_S1.);
#495 = LINE('',#496,#497);
#496 = CARTESIAN_POINT('',(30.,20.,15.));
#497 = VECTOR('',#498,1.);
#498 = DIRECTION('',(0.,-1.,0.));
#499 = PCURVE('',#100,#500);
#500 = DEFINITIONAL_REPRESENTATION('',(#501),#505);
#501 = LINE('',#502,#503);
#502 = CARTESIAN_POINT('',(-30.,20.));
#503 = VECTOR('',#504,1.);
#504 = DIRECTION('',(0.,-1.));
#505 = ( GEOMETRIC_REPRESENTATION_CONTEXT(2) 
PARAMETRIC_REPRESENTATION_CONTEXT() REPRESENTATION_CONTEXT('2D SPACE',''
  ) );
#506 = PCURVE('',#264,#507);
#507 = DEFINITIONAL_REPRESENTATION('',(#508),#512);
#508 = LINE('',#509,#510);
#509 = CARTESIAN_POINT('',(0.,-30.));
#510 = VECTOR('',#511,1.);
#511 = DIRECTION('',(1.,0.));
#512 = ( GEOMETRIC_REPRESENTATION_CONTEXT(2) 
PARAMETRIC_REPRESENTATION_CONTEXT() REPRESENTATION_CONTEXT('2D SPACE',''
  ) );
#513 = ORIENTED_EDGE('',*,*,#514,.T.);
#514 = EDGE_CURVE('',#492,#441,#515,.T.);
#515 = SURFACE_CURVE('',#516,(#520,#527),.PCURVE_S1.);
#516 = LINE('',#517,#518);
#517 = CARTESIAN_POINT('',(30.,-20.,15.));
#518 = VECTOR('',#519,1.);
#519 = DIRECTION('',(-1.,0.,0.));
#520 = PCURVE('',#100,#521);
#521 = DEFINITIONAL_REPRESENTATION('',(#522),#526);
#522 = LINE('',#523,#524);
#523 = CARTESIAN_POINT('',(-30.,-20.));
#524 = VECTOR('',#525,1.);
#525 = DIRECTION('',(1.,0.));
#526 = ( GEOMETRIC_REPRESENTATION_CONTEXT(2) 
PARAMETRIC_REPRESENTATION_CONTEXT() REPRESENTATION_CONTEXT('2D SPACE',''
  ) );
#527 = PCURVE('',#292,#528);
#528 = DEFINITIONAL_REPRESENTATION('',(#529),#533);
#529 = LINE('',#530,#531);
#530 = CARTESIAN_POINT('',(0.,-30.));
#531 = VECTOR('',#532,1.);
#532 = DIRECTION('',(1.,0.));
#533 = ( GEOMETRIC_REPRESENTATION_CONTEXT(2) 
PARAMETRIC_REPRESENTATION_CONTEXT() REPRESENTATION_CONTEXT('2D SPACE',''
  ) );
#534 = ORIENTED_EDGE('',*,*,#463,.T.);
#535 = ADVANCED_FACE('',(#536),#264,.T.);
#536 = FACE_BOUND('',#537,.T.);
#537 = EDGE_LOOP('',(#538,#539,#540,#541));
#538 = ORIENTED_EDGE('',*,*,#248,.F.);
#539 = ORIENTED_EDGE('',*,*,#329,.T.);
#540 = ORIENTED_EDGE('',*,*,#491,.T.);
#541 = ORIENTED_EDGE('',*,*,#542,.F.);
#542 = EDGE_CURVE('',#249,#492,#543,.T.);
#543 = SURFACE_CURVE('',#544,(#548,#555),.PCURVE_S1.);
#544 = LINE('',#545,#546);
#545 = CARTESIAN_POINT('',(30.,-20.,-15.));
#546 = VECTOR('',#547,1.);
#547 = DIRECTION('',(0.,0.,1.));
#548 = PCURVE('',#264,#549);
#549 = DEFINITIONAL_REPRESENTATION('',(#550),#554);
#550 = LINE('',#551,#552);
#551 = CARTESIAN_POINT('',(40.,0.));
#552 = VECTOR('',#553,1.);
#553 = DIRECTION('',(0.,-1.));
#554 = ( GEOMETRIC_REPRESENTATION_CONTEXT(2) 
PARAMETRIC_REPRESENTATION_CONTEXT() REPRESENTATION_CONTEXT('2D SPACE',''
  ) );
#555 = PCURVE('',#292,#556);
#556 = DEFINITIONAL_REPRESENTATION('',(#557),#561);
#557 = LINE('',#558,#559);
#558 = CARTESIAN_POINT('',(0.,-0.));
#559 = VECTOR('',#560,1.);
#560 = DIRECTION('',(0.,-1.));
#561 = ( GEOMETRIC_REPRESENTATION_CONTEXT(2) 
PARAMETRIC_REPRESENTATION_CONTEXT() REPRESENTATION_CONTEXT('2D SPACE',''
  ) );
#562 = ADVANCED_FACE('',(#563),#292,.T.);
#563 = FACE_BOUND('',#564,.T.);
#564 = EDGE_LOOP('',(#565,#566,#567,#568));
#565 = ORIENTED_EDGE('',*,*,#542,.T.);
#566 = ORIENTED_EDGE('',*,*,#514,.T.);
#567 = ORIENTED_EDGE('',*,*,#440,.F.);
#568 = ORIENTED_EDGE('',*,*,#276,.F.);
#569 = ( GEOMETRIC_REPRESENTATION_CONTEXT(3) 
GLOBAL_UNCERTAINTY_ASSIGNED_CONTEXT((#573)) GLOBAL_UNIT_ASSIGNED_CONTEXT
((#570,#571,#572)) REPRESENTATION_CONTEXT('Context #1',
  '3D Context with UNIT and UNCERTAINTY') );
#570 = ( LENGTH_UNIT() NAMED_UNIT(*) SI_UNIT(.MILLI.,.METRE.) );
#571 = ( NAMED_UNIT(*) PLANE_ANGLE_UNIT() SI_UNIT($,.RADIAN.) );
#572 = ( NAMED_UNIT(*) SI_UNIT($,.STERADIAN.) SOLID_ANGLE_UNIT() );
#573 = UNCERTAINTY_MEASURE_WITH_UNIT(LENGTH_MEASURE(1.E-07),#570,
  'distance_accuracy_value','confusion accuracy');
#574 = PRODUCT_RELATED_PRODUCT_CATEGORY('part',$,(#7));
ENDSEC;
END-ISO-10303-21;
