<svg xmlns="http://www.w3.org/2000/svg" width="1200" height="350" viewBox="0 0 1200 350"><title>NexyFab exact OCCT HLR — mirror</title><rect width="1200" height="350" fill="white"/><g transform="translate(0 0)"><text x="12" y="24" font-family="sans-serif" font-size="14">front</text><svg x="12" y="36" width="376" height="300" viewBox="-2.000001 -17.000000999999997 64.000002 34.000001999999995"><path d="M 0 15 L 0 -15 L 60 -15" fill="none" stroke="#64748b" stroke-width="0.3" stroke-dasharray="2 1"/><path d="M 60 15 L 60 -15" fill="none" stroke="#64748b" stroke-width="0.3" stroke-dasharray="2 1"/><path d="M 0 15 L 60 15" fill="none" stroke="#64748b" stroke-width="0.3" stroke-dasharray="2 1"/><path d="M 0 15 L 0 -15" fill="none" stroke="#111827" stroke-width="0.55"/><path d="M 60 15 L 60 -15 L 0 -15" fill="none" stroke="#111827" stroke-width="0.55"/><path d="M 60 15 L 0 15" fill="none" stroke="#111827" stroke-width="0.55"/></svg></g><g transform="translate(400 0)"><text x="12" y="24" font-family="sans-serif" font-size="14">top</text><svg x="12" y="36" width="376" height="300" viewBox="-2.000001 -22.000001 64.000002 44.000002"><path d="M 0 20 L 60 20 L 60 -20 L 0 -20 L 0 20 Z" fill="none" stroke="#64748b" stroke-width="0.3" stroke-dasharray="2 1"/><path d="M 0 20 L 60 20 L 60 -20 L 0 -20 L 0 20 Z" fill="none" stroke="#111827" stroke-width="0.55"/></svg></g><g transform="translate(800 0)"><text x="12" y="24" font-family="sans-serif" font-size="14">right</text><svg x="12" y="36" width="376" height="300" viewBox="-22.000001 -17.000000999999997 44.000002 34.000001999999995"><path d="M -20 15 L -20 -15 L 20 -15" fill="none" stroke="#64748b" stroke-width="0.3" stroke-dasharray="2 1"/><path d="M 20 15 L 20 -15" fill="none" stroke="#64748b" stroke-width="0.3" stroke-dasharray="2 1"/><path d="M -20 15 L 20 15" fill="none" stroke="#64748b" stroke-width="0.3" stroke-dasharray="2 1"/><path d="M -20 15 L -20 -15" fill="none" stroke="#111827" stroke-width="0.55"/><path d="M 20 15 L 20 -15 L -20 -15" fill="none" stroke="#111827" stroke-width="0.55"/><path d="M 20 15 L -20 15" fill="none" stroke="#111827" stroke-width="0.55"/></svg></g></svg>
